<svg width="171" height="202" viewBox="0 0 171 202" fill="none" xmlns="http://www.w3.org/2000/svg">
<rect x="0.355631" y="31.6512" width="169.992" height="169.992" fill="#1F1C21" stroke="white" stroke-width="0.711262"/>
<line x1="57.2566" y1="31.2955" x2="57.2566" y2="202" stroke="white" stroke-width="0.711262"/>
<line x1="114.158" y1="31.2955" x2="114.158" y2="202" stroke="white" stroke-width="0.711262"/>
<line y1="87.8409" x2="170.704" y2="87.8409" stroke="white" stroke-width="0.711262"/>
<line y1="144.742" x2="170.704" y2="144.742" stroke="white" stroke-width="0.711262"/>
<path d="M23.7564 60.4587C23.7564 63.9317 24.0412 66.592 24.6108 68.4396C25.1803 70.2733 26.3472 71.1902 28.1115 71.1902C29.8758 71.1902 31.0288 70.2733 31.5706 68.4396C32.1263 66.592 32.4041 63.9317 32.4041 60.4587C32.4041 56.8191 32.1263 54.1241 31.5706 52.3737C31.0288 50.6233 29.8758 49.7481 28.1115 49.7481C26.3472 49.7481 25.1803 50.6233 24.6108 52.3737C24.0412 54.1241 23.7564 56.8191 23.7564 60.4587ZM28.1115 44.8512C31.9595 44.8512 34.6546 46.2057 36.1966 48.9146C37.7524 51.6235 38.5304 55.4716 38.5304 60.4587C38.5304 65.4459 37.7524 69.287 36.1966 71.982C34.6546 74.677 31.9595 76.0245 28.1115 76.0245C24.2635 76.0245 21.5615 74.677 20.0056 71.982C18.4636 69.287 17.6926 65.4459 17.6926 60.4587C17.6926 55.4716 18.4636 51.6235 20.0056 48.9146C21.5615 46.2057 24.2635 44.8512 28.1115 44.8512Z" fill="white"/>
<path d="M1.30028 3.75573H3.25903L9.44368 13.6745V3.75573H11.019V16H9.16028L2.88395 6.08956V16H1.30028V3.75573ZM17.1536 6.87306C17.7871 6.87306 18.4011 7.02309 18.9957 7.32315C19.5903 7.61766 20.0432 8.00108 20.3543 8.4734C20.6544 8.92349 20.8544 9.44861 20.9545 10.0487C21.0434 10.4599 21.0878 11.1156 21.0878 12.0158H14.5448C14.5725 12.9216 14.7865 13.6495 15.1866 14.1996C15.5866 14.7442 16.2062 15.0165 17.0453 15.0165C17.8288 15.0165 18.4539 14.7581 18.9207 14.2413C19.1874 13.9412 19.3763 13.5939 19.4875 13.1994H20.9628C20.9239 13.5273 20.7933 13.894 20.571 14.2996C20.3543 14.6997 20.1098 15.0276 19.8376 15.2832C19.3819 15.7277 18.8179 16.0278 18.1455 16.1834C17.7843 16.2723 17.3759 16.3167 16.9203 16.3167C15.8089 16.3167 14.8671 15.9139 14.0947 15.1081C13.3223 14.2969 12.9361 13.1633 12.9361 11.7074C12.9361 10.2738 13.3251 9.10965 14.103 8.21501C14.8809 7.32038 15.8978 6.87306 17.1536 6.87306ZM19.5458 10.8239C19.4847 10.1738 19.343 9.65421 19.1207 9.26523C18.7095 8.54286 18.0233 8.18167 17.062 8.18167C16.3729 8.18167 15.795 8.43172 15.3283 8.93183C14.8615 9.42638 14.6142 10.0571 14.5864 10.8239H19.5458ZM22.088 7.0731H24.0301L26.0805 10.2154L28.156 7.0731L29.9814 7.11478L26.9724 11.424L30.1147 16H28.1977L25.9805 12.6493L23.8301 16H21.9297L25.072 11.424L22.088 7.0731ZM31.7734 4.5809H33.2904V7.0731H34.7157V8.29836H33.2904V14.1246C33.2904 14.4358 33.396 14.6442 33.6071 14.7497C33.7238 14.8109 33.9183 14.8414 34.1906 14.8414C34.2628 14.8414 34.3406 14.8414 34.424 14.8414C34.5073 14.8359 34.6046 14.8275 34.7157 14.8164V16C34.5435 16.05 34.3629 16.0861 34.1739 16.1084C33.9906 16.1306 33.7905 16.1417 33.5738 16.1417C32.8737 16.1417 32.3986 15.9639 32.1485 15.6083C31.8985 15.2471 31.7734 14.7803 31.7734 14.208V8.29836H30.5648V7.0731H31.7734V4.5809ZM41.3338 3.75573H46.8433C47.9324 3.75573 48.8104 4.06413 49.4772 4.68093C50.144 5.29217 50.4774 6.15346 50.4774 7.26481C50.4774 8.22057 50.1801 9.05408 49.5855 9.76534C48.991 10.471 48.0769 10.8239 46.8433 10.8239H42.9925V16H41.3338V3.75573ZM48.802 7.27314C48.802 6.37295 48.4686 5.76171 47.8018 5.43942C47.4351 5.26716 46.9322 5.18103 46.2932 5.18103H42.9925V9.4236H46.2932C47.0378 9.4236 47.6407 9.26523 48.1019 8.9485C48.5687 8.63177 48.802 8.07331 48.802 7.27314ZM52.4028 3.75573H53.9031V16H52.4028V3.75573ZM57.3122 13.6245C57.3122 14.0579 57.4706 14.3997 57.7873 14.6497C58.104 14.8998 58.4791 15.0248 58.9125 15.0248C59.4404 15.0248 59.9516 14.9025 60.4462 14.658C61.2797 14.2524 61.6965 13.5884 61.6965 12.666V11.4574C61.5131 11.5741 61.2769 11.6713 60.988 11.7491C60.699 11.8269 60.4156 11.8825 60.1378 11.9158L59.2293 12.0325C58.6847 12.1047 58.2763 12.2186 58.004 12.3742C57.5428 12.6354 57.3122 13.0522 57.3122 13.6245ZM60.9463 10.5905C61.2908 10.5461 61.5214 10.4016 61.6381 10.1571C61.7048 10.0237 61.7381 9.83202 61.7381 9.58197C61.7381 9.07075 61.5548 8.70123 61.188 8.4734C60.8268 8.24002 60.3073 8.12332 59.6293 8.12332C58.8458 8.12332 58.2902 8.33448 57.9623 8.75679C57.779 8.99018 57.6595 9.33747 57.6039 9.79868H56.2036C56.2314 8.69845 56.587 7.9344 57.2705 7.50653C57.9595 7.0731 58.7569 6.85639 59.6627 6.85639C60.7129 6.85639 61.5659 7.05643 62.2216 7.45652C62.8717 7.8566 63.1968 8.47896 63.1968 9.32358V14.4663C63.1968 14.6219 63.2273 14.747 63.2885 14.8414C63.3551 14.9359 63.4913 14.9831 63.6969 14.9831C63.7636 14.9831 63.8386 14.9803 63.9219 14.9748C64.0053 14.9637 64.0942 14.9498 64.1887 14.9331V16.0417C63.9553 16.1084 63.7775 16.15 63.6552 16.1667C63.533 16.1834 63.3663 16.1917 63.1551 16.1917C62.6383 16.1917 62.2632 16.0083 62.0299 15.6416C61.9076 15.4471 61.8215 15.172 61.7715 14.8164C61.4659 15.2165 61.0269 15.5638 60.4545 15.8583C59.8822 16.1528 59.2515 16.3001 58.5625 16.3001C57.7345 16.3001 57.0566 16.05 56.5287 15.5499C56.0064 15.0442 55.7452 14.4136 55.7452 13.6578C55.7452 12.8299 56.0036 12.1881 56.5204 11.7324C57.0371 11.2768 57.7151 10.9962 58.5541 10.8906L60.9463 10.5905ZM71.2401 7.0731H72.8988C72.6877 7.64545 72.2181 8.95128 71.4902 10.9906C70.9456 12.5243 70.49 13.7745 70.1232 14.7414C69.2564 17.0197 68.6452 18.4088 68.2895 18.909C67.9339 19.4091 67.3226 19.6591 66.4558 19.6591C66.2446 19.6591 66.0807 19.6508 65.964 19.6341C65.8529 19.6174 65.714 19.5869 65.5473 19.5424V18.1755C65.8084 18.2477 65.9974 18.2922 66.1141 18.3088C66.2307 18.3255 66.3335 18.3338 66.4225 18.3338C66.7003 18.3338 66.9031 18.2866 67.0309 18.1921C67.1643 18.1032 67.2754 17.9921 67.3643 17.8587C67.3921 17.8143 67.4921 17.5864 67.6644 17.1752C67.8366 16.7641 67.9617 16.4584 68.0395 16.2584L64.7388 7.0731H66.4391L68.8313 14.3413L71.2401 7.0731ZM77.9166 6.87306C78.55 6.87306 79.1641 7.02309 79.7586 7.32315C80.3532 7.61766 80.8061 8.00108 81.1172 8.4734C81.4173 8.92349 81.6174 9.44861 81.7174 10.0487C81.8063 10.4599 81.8507 11.1156 81.8507 12.0158H75.3077C75.3355 12.9216 75.5494 13.6495 75.9495 14.1996C76.3496 14.7442 76.9691 15.0165 77.8082 15.0165C78.5917 15.0165 79.2168 14.7581 79.6836 14.2413C79.9503 13.9412 80.1393 13.5939 80.2504 13.1994H81.7257C81.6868 13.5273 81.5562 13.894 81.334 14.2996C81.1172 14.6997 80.8728 15.0276 80.6005 15.2832C80.1448 15.7277 79.5808 16.0278 78.9084 16.1834C78.5473 16.2723 78.1388 16.3167 77.6832 16.3167C76.5718 16.3167 75.63 15.9139 74.8576 15.1081C74.0852 14.2969 73.699 13.1633 73.699 11.7074C73.699 10.2738 74.088 9.10965 74.8659 8.21501C75.6439 7.32038 76.6607 6.87306 77.9166 6.87306ZM80.3087 10.8239C80.2476 10.1738 80.1059 9.65421 79.8837 9.26523C79.4725 8.54286 78.7862 8.18167 77.8249 8.18167C77.1358 8.18167 76.5579 8.43172 76.0912 8.93183C75.6244 9.42638 75.3771 10.0571 75.3494 10.8239H80.3087ZM83.7428 7.0731H85.1681V8.6151C85.2848 8.31503 85.571 7.95107 86.0266 7.5232C86.4823 7.08977 87.0074 6.87306 87.602 6.87306C87.6297 6.87306 87.677 6.87584 87.7437 6.88139C87.8103 6.88695 87.9243 6.89806 88.0854 6.91473V8.4984C87.9965 8.48173 87.9131 8.47062 87.8353 8.46506C87.7631 8.45951 87.6825 8.45673 87.5936 8.45673C86.8379 8.45673 86.2572 8.70123 85.8516 9.19022C85.4459 9.67365 85.2431 10.2321 85.2431 10.8656V16H83.7428V7.0731ZM90.1775 7.18979H91.9196V9.00685H90.1775V7.18979ZM90.1775 14.1829H91.9196V16H90.1775V14.1829ZM100.138 16H98.1375L102.522 9.72367L98.4126 3.75573H100.488L103.614 8.44006L106.714 3.75573H108.69L104.581 9.72367L108.89 16H106.831L103.53 10.9656L100.138 16Z" fill="white"/>
<path d="M76.219 54.4366V50.3941C78.0944 50.3107 79.4072 50.1857 80.1573 50.019C81.352 49.7551 82.3244 49.2272 83.0746 48.4353C83.5886 47.8936 83.9776 47.1712 84.2415 46.2682C84.3943 45.7264 84.4707 45.3236 84.4707 45.0596H89.4093V75.2744H83.3247V54.4366H76.219Z" fill="white"/>
<path d="M131.495 75.2744C131.55 73.1073 132.016 71.1277 132.891 69.3356C133.738 67.3213 135.739 65.1889 138.892 62.9384C141.629 60.9797 143.4 59.5766 144.206 58.7292C145.442 57.4095 146.06 55.9647 146.06 54.3949C146.06 53.1169 145.706 52.0542 144.997 51.2068C144.289 50.3594 143.275 49.9357 141.955 49.9357C140.149 49.9357 138.92 50.6094 138.267 51.9569C137.892 52.7349 137.67 53.9712 137.6 55.666H131.828C131.925 53.0961 132.391 51.0192 133.224 49.4356C134.808 46.421 137.621 44.9138 141.663 44.9138C144.859 44.9138 147.401 45.8028 149.29 47.581C151.179 49.3453 152.124 51.686 152.124 54.6033C152.124 56.8399 151.457 58.8264 150.124 60.5629C149.248 61.7159 147.811 63.0009 145.81 64.4179L143.435 66.1058C141.948 67.1615 140.927 67.9256 140.372 68.3979C139.83 68.8702 139.371 69.419 138.996 70.0441H152.187V75.2744H131.495Z" fill="white"/>
<path d="M137.204 121.957C137.44 123.248 137.892 124.249 138.559 124.957C139.225 125.652 140.198 125.999 141.476 125.999C142.948 125.999 144.067 125.485 144.831 124.457C145.609 123.415 145.998 122.109 145.998 120.54C145.998 118.998 145.637 117.699 144.914 116.643C144.192 115.573 143.067 115.038 141.538 115.038C140.816 115.038 140.191 115.129 139.663 115.309C138.732 115.643 138.031 116.261 137.558 117.164L132.224 116.914L134.349 100.223H150.999V105.265H138.642L137.558 111.871C138.475 111.274 139.191 110.878 139.705 110.683C140.566 110.364 141.615 110.204 142.851 110.204C145.352 110.204 147.533 111.044 149.394 112.725C151.256 114.406 152.187 116.851 152.187 120.06C152.187 122.853 151.291 125.346 149.498 127.541C147.706 129.736 145.025 130.833 141.455 130.833C138.579 130.833 136.218 130.062 134.37 128.52C132.523 126.978 131.495 124.79 131.286 121.957H137.204Z" fill="white"/>
<path d="M23.6522 178.801C23.6522 180.426 24.0898 181.753 24.965 182.781C25.8402 183.809 26.9515 184.323 28.299 184.323C29.6188 184.323 30.6537 183.829 31.4039 182.843C32.1679 181.843 32.55 180.551 32.55 178.967C32.55 177.203 32.1193 175.856 31.258 174.925C30.3967 173.98 29.3409 173.508 28.0907 173.508C27.0766 173.508 26.1805 173.813 25.4026 174.425C24.2357 175.328 23.6522 176.786 23.6522 178.801ZM32.0082 165.756C32.0082 165.27 31.8206 164.735 31.4456 164.152C30.8065 163.207 29.841 162.735 28.5491 162.735C26.6181 162.735 25.2428 163.818 24.4232 165.985C23.9787 167.18 23.6731 168.944 23.5064 171.278C24.2426 170.403 25.097 169.764 26.0694 169.361C27.0418 168.958 28.1532 168.757 29.4034 168.757C32.0846 168.757 34.2795 169.667 35.9882 171.487C37.7108 173.306 38.5721 175.633 38.5721 178.467C38.5721 181.287 37.7316 183.774 36.0507 185.927C34.3698 188.08 31.7581 189.157 28.2157 189.157C24.4093 189.157 21.6032 187.566 19.7972 184.385C18.3942 181.898 17.6926 178.689 17.6926 174.758C17.6926 172.452 17.7899 170.577 17.9844 169.132C18.3317 166.562 19.0054 164.423 20.0056 162.714C20.8669 161.255 21.9922 160.081 23.3813 159.192C24.7844 158.303 26.4584 157.859 28.4032 157.859C31.2094 157.859 33.446 158.581 35.113 160.026C36.78 161.457 37.7177 163.367 37.9261 165.756H32.0082Z" fill="white"/>
<path d="M96.4761 163.193C95.587 164.068 94.3506 165.631 92.767 167.882C91.1833 170.118 89.8566 172.431 88.787 174.821C87.9396 176.696 87.1755 178.988 86.4948 181.697C85.8141 184.406 85.4738 186.629 85.4738 188.365H79.3058C79.4864 182.947 81.2645 177.314 84.6402 171.466C86.8213 167.84 88.648 165.312 90.1206 163.881H75.0549L75.1382 158.546H96.4761V163.193Z" fill="white"/>
<path d="M151.954 161.771C151.065 162.646 149.829 164.209 148.245 166.459C146.662 168.696 145.335 171.009 144.265 173.398C143.418 175.273 142.654 177.566 141.973 180.274C141.293 182.983 140.952 185.206 140.952 186.943H134.784C134.965 181.525 136.743 175.892 140.119 170.043C142.3 166.417 144.126 163.889 145.599 162.458H130.533L130.617 157.124H151.954V161.771Z" fill="white"/>
<path d="M95.5773 123.54H92.1599V130.042H86.3461V123.54H74.3852V118.352L85.4918 100.014H92.1599V118.893H95.5773V123.54ZM86.3461 118.893V105.849L78.782 118.893H86.3461Z" fill="white"/>
<path d="M23.3188 121.48C23.3188 122.689 23.5133 123.689 23.9023 124.481C24.6247 125.939 25.9374 126.669 27.8406 126.669C29.0075 126.669 30.0216 126.273 30.8829 125.481C31.7581 124.675 32.1957 123.522 32.1957 122.022C32.1957 120.035 31.39 118.709 29.7785 118.042C28.8617 117.667 27.4169 117.479 25.4443 117.479V113.228C27.3752 113.201 28.7227 113.013 29.4868 112.666C30.8065 112.082 31.4664 110.901 31.4664 109.123C31.4664 107.97 31.126 107.033 30.4453 106.31C29.7785 105.588 28.8339 105.227 27.6114 105.227C26.2083 105.227 25.1734 105.671 24.5066 106.56C23.8537 107.449 23.5411 108.637 23.5689 110.123H18.026C18.0816 108.623 18.3386 107.199 18.797 105.852C19.2832 104.671 20.0473 103.58 21.0892 102.58C21.8671 101.872 22.7909 101.33 23.8606 100.955C24.9303 100.58 26.2431 100.392 27.7989 100.392C30.6884 100.392 33.0153 101.142 34.7796 102.643C36.5577 104.129 37.4468 106.13 37.4468 108.644C37.4468 110.422 36.9189 111.922 35.8632 113.145C35.1963 113.909 34.5018 114.43 33.7794 114.708C34.3212 114.708 35.0991 115.173 36.1132 116.104C37.6274 117.507 38.3845 119.424 38.3845 121.855C38.3845 124.411 37.4954 126.662 35.7173 128.607C33.953 130.538 31.3344 131.503 27.8615 131.503C23.5828 131.503 20.6099 130.107 18.9429 127.315C18.0677 125.828 17.5815 123.883 17.4842 121.48H23.3188Z" fill="white"/>
</svg>
