<svg width="612" height="208" viewBox="0 0 612 208" fill="none" xmlns="http://www.w3.org/2000/svg">
<path d="M575.879 135.884V155H503.735C504.517 147.773 506.86 140.938 510.767 134.492C514.673 127.998 522.388 119.404 533.911 108.711C543.188 100.068 548.877 94.209 550.977 91.1328C553.809 86.8848 555.225 82.6855 555.225 78.5352C555.225 73.9453 553.979 70.4297 551.489 67.9883C549.048 65.498 545.654 64.2529 541.309 64.2529C537.012 64.2529 533.594 65.5469 531.055 68.1348C528.516 70.7227 527.051 75.0195 526.66 81.0254L506.152 78.9746C507.373 67.6465 511.206 59.5166 517.651 54.585C524.097 49.6533 532.153 47.1875 541.821 47.1875C552.417 47.1875 560.742 50.0439 566.797 55.7568C572.852 61.4697 575.879 68.5742 575.879 77.0703C575.879 81.9043 575 86.5186 573.242 90.9131C571.533 95.2588 568.799 99.8242 565.039 104.609C562.549 107.783 558.057 112.349 551.562 118.306C545.068 124.263 540.942 128.218 539.185 130.171C537.476 132.124 536.084 134.028 535.01 135.884H575.879Z" fill="black"/>
<path d="M382.989 81.8408L389.996 84.0625C388.922 87.9688 387.132 90.874 384.625 92.7783C382.135 94.6663 378.969 95.6104 375.128 95.6104C370.375 95.6104 366.469 93.9909 363.409 90.752C360.349 87.4967 358.819 83.0534 358.819 77.4219C358.819 71.4648 360.357 66.8424 363.434 63.5547C366.51 60.2507 370.554 58.5986 375.567 58.5986C379.946 58.5986 383.502 59.8926 386.236 62.4805C387.864 64.0104 389.085 66.2077 389.898 69.0723L382.745 70.7812C382.322 68.9258 381.435 67.4609 380.084 66.3867C378.749 65.3125 377.122 64.7754 375.201 64.7754C372.548 64.7754 370.392 65.7275 368.731 67.6318C367.088 69.5361 366.266 72.6204 366.266 76.8848C366.266 81.4095 367.079 84.6322 368.707 86.5527C370.335 88.4733 372.451 89.4336 375.055 89.4336C376.975 89.4336 378.627 88.8232 380.011 87.6025C381.394 86.3818 382.387 84.4613 382.989 81.8408ZM394.586 81.6699C394.586 79.3913 395.147 77.1859 396.271 75.0537C397.394 72.9215 398.98 71.2939 401.031 70.1709C403.098 69.0479 405.401 68.4863 407.94 68.4863C411.863 68.4863 415.077 69.764 417.584 72.3193C420.09 74.8584 421.344 78.0729 421.344 81.9629C421.344 85.8854 420.074 89.1406 417.535 91.7285C415.012 94.3001 411.83 95.5859 407.989 95.5859C405.613 95.5859 403.342 95.0488 401.178 93.9746C399.029 92.9004 397.394 91.3298 396.271 89.2627C395.147 87.1794 394.586 84.6484 394.586 81.6699ZM401.617 82.0361C401.617 84.6077 402.228 86.5771 403.448 87.9443C404.669 89.3115 406.174 89.9951 407.965 89.9951C409.755 89.9951 411.253 89.3115 412.457 87.9443C413.678 86.5771 414.288 84.5915 414.288 81.9873C414.288 79.4482 413.678 77.4951 412.457 76.1279C411.253 74.7607 409.755 74.0771 407.965 74.0771C406.174 74.0771 404.669 74.7607 403.448 76.1279C402.228 77.4951 401.617 79.4645 401.617 82.0361ZM450.519 95H444.146V91.1914C443.089 92.6725 441.835 93.7793 440.387 94.5117C438.954 95.2279 437.506 95.5859 436.041 95.5859C433.062 95.5859 430.507 94.3896 428.375 91.9971C426.259 89.5882 425.201 86.2354 425.201 81.9385C425.201 77.5439 426.235 74.2074 428.302 71.9287C430.369 69.6338 432.981 68.4863 436.139 68.4863C439.036 68.4863 441.542 69.6908 443.658 72.0996V59.209H450.519V95ZM432.208 81.4746C432.208 84.2415 432.59 86.2435 433.355 87.4805C434.462 89.2708 436.008 90.166 437.994 90.166C439.573 90.166 440.916 89.4987 442.022 88.1641C443.129 86.8132 443.683 84.8031 443.683 82.1338C443.683 79.1553 443.146 77.015 442.071 75.7129C440.997 74.3945 439.622 73.7354 437.945 73.7354C436.318 73.7354 434.951 74.3864 433.844 75.6885C432.753 76.9743 432.208 78.903 432.208 81.4746ZM472.32 86.748L479.156 87.8955C478.277 90.402 476.886 92.3145 474.981 93.6328C473.093 94.9349 470.725 95.5859 467.877 95.5859C463.368 95.5859 460.032 94.113 457.867 91.167C456.158 88.807 455.304 85.8285 455.304 82.2314C455.304 77.9346 456.427 74.5736 458.673 72.1484C460.919 69.707 463.759 68.4863 467.193 68.4863C471.051 68.4863 474.094 69.764 476.324 72.3193C478.554 74.8584 479.62 78.7565 479.522 84.0137H462.335C462.384 86.0482 462.937 87.6351 463.995 88.7744C465.053 89.8975 466.371 90.459 467.95 90.459C469.024 90.459 469.928 90.166 470.66 89.5801C471.393 88.9941 471.946 88.0501 472.32 86.748ZM472.711 79.8145C472.662 77.8288 472.149 76.3232 471.173 75.2979C470.196 74.2562 469.008 73.7354 467.608 73.7354C466.111 73.7354 464.874 74.2806 463.897 75.3711C462.921 76.4616 462.441 77.9427 462.457 79.8145H472.711Z" fill="black"/>
<path d="M52.4023 152L63.3984 123.367H67.4805L79.1992 152H74.8828L71.543 143.328H59.5703L56.4258 152H52.4023ZM60.6641 140.242H70.3711L67.3828 132.312C66.4714 129.904 65.7943 127.924 65.3516 126.375C64.987 128.211 64.4727 130.034 63.8086 131.844L60.6641 140.242ZM95.3711 152V148.953C93.7565 151.297 91.5625 152.469 88.7891 152.469C87.5651 152.469 86.4193 152.234 85.3516 151.766C84.2969 151.297 83.5091 150.711 82.9883 150.008C82.4805 149.292 82.1224 148.419 81.9141 147.391C81.7708 146.701 81.6992 145.607 81.6992 144.109V131.258H85.2148V142.762C85.2148 144.598 85.2865 145.835 85.4297 146.473C85.651 147.397 86.1198 148.126 86.8359 148.66C87.5521 149.181 88.4375 149.441 89.4922 149.441C90.5469 149.441 91.5365 149.174 92.4609 148.641C93.3854 148.094 94.0365 147.358 94.4141 146.434C94.8047 145.496 95 144.142 95 142.371V131.258H98.5156V152H95.3711ZM111.719 148.855L112.227 151.961C111.237 152.169 110.352 152.273 109.57 152.273C108.294 152.273 107.305 152.072 106.602 151.668C105.898 151.264 105.404 150.737 105.117 150.086C104.831 149.422 104.688 148.035 104.688 145.926V133.992H102.109V131.258H104.688V126.121L108.184 124.012V131.258H111.719V133.992H108.184V146.121C108.184 147.124 108.242 147.768 108.359 148.055C108.49 148.341 108.691 148.569 108.965 148.738C109.251 148.908 109.655 148.992 110.176 148.992C110.566 148.992 111.081 148.947 111.719 148.855ZM113.867 141.629C113.867 137.788 114.935 134.943 117.07 133.094C118.854 131.557 121.029 130.789 123.594 130.789C126.445 130.789 128.776 131.727 130.586 133.602C132.396 135.464 133.301 138.042 133.301 141.336C133.301 144.005 132.897 146.108 132.09 147.645C131.296 149.168 130.13 150.353 128.594 151.199C127.07 152.046 125.404 152.469 123.594 152.469C120.69 152.469 118.34 151.538 116.543 149.676C114.759 147.814 113.867 145.132 113.867 141.629ZM117.48 141.629C117.48 144.285 118.06 146.277 119.219 147.605C120.378 148.921 121.836 149.578 123.594 149.578C125.339 149.578 126.79 148.914 127.949 147.586C129.108 146.258 129.688 144.233 129.688 141.512C129.688 138.947 129.102 137.007 127.93 135.691C126.771 134.363 125.326 133.699 123.594 133.699C121.836 133.699 120.378 134.357 119.219 135.672C118.06 136.987 117.48 138.973 117.48 141.629ZM147.168 145.809L150.645 145.262C150.84 146.655 151.38 147.723 152.266 148.465C153.164 149.207 154.414 149.578 156.016 149.578C157.63 149.578 158.828 149.253 159.609 148.602C160.391 147.938 160.781 147.163 160.781 146.277C160.781 145.483 160.436 144.858 159.746 144.402C159.264 144.09 158.066 143.693 156.152 143.211C153.574 142.56 151.784 142 150.781 141.531C149.792 141.049 149.036 140.392 148.516 139.559C148.008 138.712 147.754 137.781 147.754 136.766C147.754 135.841 147.962 134.988 148.379 134.207C148.809 133.413 149.388 132.755 150.117 132.234C150.664 131.831 151.406 131.492 152.344 131.219C153.294 130.932 154.31 130.789 155.391 130.789C157.018 130.789 158.444 131.023 159.668 131.492C160.905 131.961 161.816 132.599 162.402 133.406C162.988 134.201 163.392 135.268 163.613 136.609L160.176 137.078C160.02 136.01 159.564 135.177 158.809 134.578C158.066 133.979 157.012 133.68 155.645 133.68C154.03 133.68 152.878 133.947 152.188 134.48C151.497 135.014 151.152 135.639 151.152 136.355C151.152 136.811 151.296 137.221 151.582 137.586C151.868 137.964 152.318 138.276 152.93 138.523C153.281 138.654 154.316 138.953 156.035 139.422C158.522 140.086 160.254 140.633 161.23 141.062C162.22 141.479 162.995 142.091 163.555 142.898C164.115 143.706 164.395 144.708 164.395 145.906C164.395 147.078 164.049 148.185 163.359 149.227C162.682 150.255 161.699 151.056 160.41 151.629C159.121 152.189 157.663 152.469 156.035 152.469C153.34 152.469 151.283 151.909 149.863 150.789C148.457 149.669 147.559 148.009 147.168 145.809ZM168.418 159.988L168.027 156.688C168.796 156.896 169.466 157 170.039 157C170.82 157 171.445 156.87 171.914 156.609C172.383 156.349 172.767 155.984 173.066 155.516C173.288 155.164 173.646 154.292 174.141 152.898C174.206 152.703 174.31 152.417 174.453 152.039L166.582 131.258H170.371L174.688 143.27C175.247 144.793 175.749 146.395 176.191 148.074C176.595 146.46 177.077 144.884 177.637 143.348L182.07 131.258H185.586L177.695 152.352C176.849 154.63 176.191 156.199 175.723 157.059C175.098 158.217 174.382 159.064 173.574 159.598C172.767 160.145 171.803 160.418 170.684 160.418C170.007 160.418 169.251 160.275 168.418 159.988ZM188.574 152V131.258H191.738V134.207C193.262 131.928 195.462 130.789 198.34 130.789C199.59 130.789 200.736 131.017 201.777 131.473C202.832 131.915 203.62 132.501 204.141 133.23C204.661 133.96 205.026 134.826 205.234 135.828C205.365 136.479 205.43 137.618 205.43 139.246V152H201.914V139.383C201.914 137.951 201.777 136.883 201.504 136.18C201.23 135.464 200.742 134.897 200.039 134.48C199.349 134.051 198.535 133.836 197.598 133.836C196.1 133.836 194.805 134.311 193.711 135.262C192.63 136.212 192.09 138.016 192.09 140.672V152H188.574ZM218.516 148.855L219.023 151.961C218.034 152.169 217.148 152.273 216.367 152.273C215.091 152.273 214.102 152.072 213.398 151.668C212.695 151.264 212.201 150.737 211.914 150.086C211.628 149.422 211.484 148.035 211.484 145.926V133.992H208.906V131.258H211.484V126.121L214.98 124.012V131.258H218.516V133.992H214.98V146.121C214.98 147.124 215.039 147.768 215.156 148.055C215.286 148.341 215.488 148.569 215.762 148.738C216.048 148.908 216.452 148.992 216.973 148.992C217.363 148.992 217.878 148.947 218.516 148.855ZM235.508 149.441C234.206 150.548 232.949 151.329 231.738 151.785C230.54 152.241 229.251 152.469 227.871 152.469C225.592 152.469 223.841 151.915 222.617 150.809C221.393 149.689 220.781 148.263 220.781 146.531C220.781 145.516 221.009 144.591 221.465 143.758C221.934 142.911 222.539 142.234 223.281 141.727C224.036 141.219 224.883 140.835 225.82 140.574C226.51 140.392 227.552 140.216 228.945 140.047C231.784 139.708 233.874 139.305 235.215 138.836C235.228 138.354 235.234 138.048 235.234 137.918C235.234 136.486 234.902 135.477 234.238 134.891C233.34 134.096 232.005 133.699 230.234 133.699C228.581 133.699 227.357 133.992 226.562 134.578C225.781 135.151 225.202 136.173 224.824 137.645L221.387 137.176C221.699 135.704 222.214 134.52 222.93 133.621C223.646 132.71 224.681 132.013 226.035 131.531C227.389 131.036 228.958 130.789 230.742 130.789C232.513 130.789 233.952 130.997 235.059 131.414C236.165 131.831 236.979 132.358 237.5 132.996C238.021 133.621 238.385 134.415 238.594 135.379C238.711 135.978 238.77 137.059 238.77 138.621V143.309C238.77 146.577 238.841 148.647 238.984 149.52C239.141 150.379 239.44 151.206 239.883 152H236.211C235.846 151.271 235.612 150.418 235.508 149.441ZM235.215 141.59C233.939 142.111 232.025 142.553 229.473 142.918C228.027 143.126 227.005 143.361 226.406 143.621C225.807 143.882 225.345 144.266 225.02 144.773C224.694 145.268 224.531 145.822 224.531 146.434C224.531 147.371 224.883 148.152 225.586 148.777C226.302 149.402 227.344 149.715 228.711 149.715C230.065 149.715 231.27 149.422 232.324 148.836C233.379 148.237 234.154 147.423 234.648 146.395C235.026 145.6 235.215 144.428 235.215 142.879V141.59ZM241.895 152L249.473 141.219L242.461 131.258H246.855L250.039 136.121C250.638 137.046 251.12 137.82 251.484 138.445C252.057 137.586 252.585 136.824 253.066 136.16L256.562 131.258H260.762L253.594 141.023L261.309 152H256.992L252.734 145.555L251.602 143.816L246.152 152H241.895ZM262.871 143.406V139.871H273.672V143.406H262.871ZM277.559 152V123.367H281.074V133.641C282.715 131.74 284.785 130.789 287.285 130.789C288.822 130.789 290.156 131.095 291.289 131.707C292.422 132.306 293.229 133.139 293.711 134.207C294.206 135.275 294.453 136.824 294.453 138.855V152H290.938V138.855C290.938 137.098 290.553 135.822 289.785 135.027C289.03 134.22 287.956 133.816 286.562 133.816C285.521 133.816 284.538 134.09 283.613 134.637C282.702 135.171 282.051 135.9 281.66 136.824C281.27 137.749 281.074 139.025 281.074 140.652V152H277.559ZM299.844 127.41V123.367H303.359V127.41H299.844ZM299.844 152V131.258H303.359V152H299.844ZM308.086 153.719L311.504 154.227C311.647 155.281 312.044 156.049 312.695 156.531C313.568 157.182 314.759 157.508 316.27 157.508C317.897 157.508 319.154 157.182 320.039 156.531C320.924 155.88 321.523 154.969 321.836 153.797C322.018 153.081 322.103 151.577 322.09 149.285C320.553 151.095 318.639 152 316.348 152C313.496 152 311.289 150.971 309.727 148.914C308.164 146.857 307.383 144.389 307.383 141.512C307.383 139.533 307.741 137.71 308.457 136.043C309.173 134.363 310.208 133.068 311.562 132.156C312.93 131.245 314.531 130.789 316.367 130.789C318.815 130.789 320.833 131.779 322.422 133.758V131.258H325.664V149.188C325.664 152.417 325.332 154.702 324.668 156.043C324.017 157.397 322.975 158.465 321.543 159.246C320.124 160.027 318.372 160.418 316.289 160.418C313.815 160.418 311.816 159.858 310.293 158.738C308.77 157.632 308.034 155.958 308.086 153.719ZM310.996 141.258C310.996 143.979 311.536 145.965 312.617 147.215C313.698 148.465 315.052 149.09 316.68 149.09C318.294 149.09 319.648 148.471 320.742 147.234C321.836 145.984 322.383 144.031 322.383 141.375C322.383 138.836 321.816 136.922 320.684 135.633C319.564 134.344 318.21 133.699 316.621 133.699C315.059 133.699 313.73 134.337 312.637 135.613C311.543 136.876 310.996 138.758 310.996 141.258ZM330.996 152V123.367H334.512V133.641C336.152 131.74 338.223 130.789 340.723 130.789C342.259 130.789 343.594 131.095 344.727 131.707C345.859 132.306 346.667 133.139 347.148 134.207C347.643 135.275 347.891 136.824 347.891 138.855V152H344.375V138.855C344.375 137.098 343.991 135.822 343.223 135.027C342.467 134.22 341.393 133.816 340 133.816C338.958 133.816 337.975 134.09 337.051 134.637C336.139 135.171 335.488 135.9 335.098 136.824C334.707 137.749 334.512 139.025 334.512 140.652V152H330.996ZM353.184 152V123.367H356.699V152H353.184ZM362.188 127.41V123.367H365.703V127.41H362.188ZM362.188 152V131.258H365.703V152H362.188ZM370.43 153.719L373.848 154.227C373.991 155.281 374.388 156.049 375.039 156.531C375.911 157.182 377.103 157.508 378.613 157.508C380.241 157.508 381.497 157.182 382.383 156.531C383.268 155.88 383.867 154.969 384.18 153.797C384.362 153.081 384.447 151.577 384.434 149.285C382.897 151.095 380.983 152 378.691 152C375.84 152 373.633 150.971 372.07 148.914C370.508 146.857 369.727 144.389 369.727 141.512C369.727 139.533 370.085 137.71 370.801 136.043C371.517 134.363 372.552 133.068 373.906 132.156C375.273 131.245 376.875 130.789 378.711 130.789C381.159 130.789 383.177 131.779 384.766 133.758V131.258H388.008V149.188C388.008 152.417 387.676 154.702 387.012 156.043C386.361 157.397 385.319 158.465 383.887 159.246C382.467 160.027 380.716 160.418 378.633 160.418C376.159 160.418 374.16 159.858 372.637 158.738C371.113 157.632 370.378 155.958 370.43 153.719ZM373.34 141.258C373.34 143.979 373.88 145.965 374.961 147.215C376.042 148.465 377.396 149.09 379.023 149.09C380.638 149.09 381.992 148.471 383.086 147.234C384.18 145.984 384.727 144.031 384.727 141.375C384.727 138.836 384.16 136.922 383.027 135.633C381.908 134.344 380.553 133.699 378.965 133.699C377.402 133.699 376.074 134.337 374.98 135.613C373.887 136.876 373.34 138.758 373.34 141.258ZM393.34 152V123.367H396.855V133.641C398.496 131.74 400.566 130.789 403.066 130.789C404.603 130.789 405.938 131.095 407.07 131.707C408.203 132.306 409.01 133.139 409.492 134.207C409.987 135.275 410.234 136.824 410.234 138.855V152H406.719V138.855C406.719 137.098 406.335 135.822 405.566 135.027C404.811 134.22 403.737 133.816 402.344 133.816C401.302 133.816 400.319 134.09 399.395 134.637C398.483 135.171 397.832 135.9 397.441 136.824C397.051 137.749 396.855 139.025 396.855 140.652V152H393.34ZM423.281 148.855L423.789 151.961C422.799 152.169 421.914 152.273 421.133 152.273C419.857 152.273 418.867 152.072 418.164 151.668C417.461 151.264 416.966 150.737 416.68 150.086C416.393 149.422 416.25 148.035 416.25 145.926V133.992H413.672V131.258H416.25V126.121L419.746 124.012V131.258H423.281V133.992H419.746V146.121C419.746 147.124 419.805 147.768 419.922 148.055C420.052 148.341 420.254 148.569 420.527 148.738C420.814 148.908 421.217 148.992 421.738 148.992C422.129 148.992 422.643 148.947 423.281 148.855ZM426.758 127.41V123.367H430.273V127.41H426.758ZM426.758 152V131.258H430.273V152H426.758ZM435.645 152V131.258H438.809V134.207C440.332 131.928 442.533 130.789 445.41 130.789C446.66 130.789 447.806 131.017 448.848 131.473C449.902 131.915 450.69 132.501 451.211 133.23C451.732 133.96 452.096 134.826 452.305 135.828C452.435 136.479 452.5 137.618 452.5 139.246V152H448.984V139.383C448.984 137.951 448.848 136.883 448.574 136.18C448.301 135.464 447.812 134.897 447.109 134.48C446.419 134.051 445.605 133.836 444.668 133.836C443.171 133.836 441.875 134.311 440.781 135.262C439.701 136.212 439.16 138.016 439.16 140.672V152H435.645ZM457.266 153.719L460.684 154.227C460.827 155.281 461.224 156.049 461.875 156.531C462.747 157.182 463.939 157.508 465.449 157.508C467.077 157.508 468.333 157.182 469.219 156.531C470.104 155.88 470.703 154.969 471.016 153.797C471.198 153.081 471.283 151.577 471.27 149.285C469.733 151.095 467.819 152 465.527 152C462.676 152 460.469 150.971 458.906 148.914C457.344 146.857 456.562 144.389 456.562 141.512C456.562 139.533 456.921 137.71 457.637 136.043C458.353 134.363 459.388 133.068 460.742 132.156C462.109 131.245 463.711 130.789 465.547 130.789C467.995 130.789 470.013 131.779 471.602 133.758V131.258H474.844V149.188C474.844 152.417 474.512 154.702 473.848 156.043C473.197 157.397 472.155 158.465 470.723 159.246C469.303 160.027 467.552 160.418 465.469 160.418C462.995 160.418 460.996 159.858 459.473 158.738C457.949 157.632 457.214 155.958 457.266 153.719ZM460.176 141.258C460.176 143.979 460.716 145.965 461.797 147.215C462.878 148.465 464.232 149.09 465.859 149.09C467.474 149.09 468.828 148.471 469.922 147.234C471.016 145.984 471.562 144.031 471.562 141.375C471.562 138.836 470.996 136.922 469.863 135.633C468.743 134.344 467.389 133.699 465.801 133.699C464.238 133.699 462.91 134.337 461.816 135.613C460.723 136.876 460.176 138.758 460.176 141.258Z" fill="black" fill-opacity="0.37"/>
</svg>
