<svg width="2193" height="1628" viewBox="0 0 2193 1628" fill="none" xmlns="http://www.w3.org/2000/svg">
<rect width="229.082" height="74.6158" rx="23.9854" transform="matrix(0.750172 -0.661243 -0.661243 -0.750172 626.395 1345.4)" fill="#2ECC40"/>
<rect width="229.082" height="74.6158" rx="23.9854" transform="matrix(0.750172 -0.661243 -0.661243 -0.750172 626.395 1345.4)" stroke="black"/>
<path d="M692.704 1239.3C1169.04 1588.9 1465.1 961.232 1582.29 496.589C1593.46 452.316 1541.92 422.286 1507.56 452.365L690.597 1167.71C668.489 1187.06 669.015 1221.92 692.704 1239.3Z" fill="#2ECC40"/>
<path d="M692.704 1239.3C1169.04 1588.9 1465.1 961.232 1582.29 496.589C1593.46 452.316 1541.92 422.286 1507.56 452.365L690.597 1167.71C668.489 1187.06 669.015 1221.92 692.704 1239.3Z" fill="#2ECC40"/>
<path d="M675.993 1212.21C392.901 693.585 1054.38 483.691 1530.49 429.377C1575.85 424.201 1598.76 479.283 1564.37 509.327L746.67 1223.82C724.543 1243.16 690.072 1238 675.993 1212.21Z" fill="#2ECC40"/>
<path d="M690.682 1191.58C894.546 1029.57 1300.88 640.552 1515.8 429.168L680.483 1177.81C660.725 1195.52 669.911 1208.09 690.682 1191.58Z" fill="white"/>
<path d="M1149.57 786.317C1238.16 791.712 1414.27 757.245 1509.22 734.68L1152.16 767.947C1131.85 769.84 1129.21 785.077 1149.57 786.317Z" fill="white"/>
<path d="M902.13 1018.59C1024.95 1021.68 1277.9 979.8 1413.74 953.27L903.704 1000.79C881.428 1002.86 879.764 1018.02 902.13 1018.59Z" fill="white"/>
<path d="M964.17 928.696C939.803 843.922 935.453 665.76 936.993 568.824L981.552 922.172C984.1 942.375 969.796 948.266 964.17 928.696Z" fill="white"/>
<path d="M720.64 1137.07C695.525 1047.69 689.91 859.11 690.781 756.633L737.957 1130.73C740.543 1151.24 726.231 1156.96 720.64 1137.07Z" fill="white"/>
</svg>
