<svg width="4413" height="2734" viewBox="0 0 4413 2734" fill="none" xmlns="http://www.w3.org/2000/svg">
<path d="M1599.5 781H1743.5V1708H2231V1843H1599.5V781ZM2444.83 1537C2444.83 1568 2451.33 1596.5 2464.33 1622.5C2478.33 1647.5 2496.33 1669 2518.33 1687C2540.33 1705 2565.83 1719 2594.83 1729C2623.83 1739 2653.83 1744 2684.83 1744C2726.83 1744 2763.33 1734.5 2794.33 1715.5C2825.33 1695.5 2853.83 1669.5 2879.83 1637.5L2981.83 1715.5C2906.83 1812.5 2801.83 1861 2666.83 1861C2610.83 1861 2559.83 1851.5 2513.83 1832.5C2468.83 1813.5 2430.33 1787.5 2398.33 1754.5C2367.33 1720.5 2343.33 1681 2326.33 1636C2309.33 1590 2300.83 1540.5 2300.83 1487.5C2300.83 1434.5 2309.83 1385.5 2327.83 1340.5C2346.83 1294.5 2372.33 1255 2404.33 1222C2437.33 1188 2476.33 1161.5 2521.33 1142.5C2566.33 1123.5 2615.33 1114 2668.33 1114C2731.33 1114 2784.33 1125 2827.33 1147C2871.33 1169 2907.33 1198 2935.33 1234C2963.33 1269 2983.33 1309 2995.33 1354C3008.33 1398 3014.83 1443 3014.83 1489V1537H2444.83ZM2870.83 1429C2869.83 1399 2864.83 1371.5 2855.83 1346.5C2847.83 1321.5 2835.33 1300 2818.33 1282C2801.33 1263 2779.83 1248.5 2753.83 1238.5C2728.83 1227.5 2699.33 1222 2665.33 1222C2632.33 1222 2601.83 1228.5 2573.83 1241.5C2546.83 1253.5 2523.83 1269.5 2504.83 1289.5C2485.83 1309.5 2470.83 1332 2459.83 1357C2449.83 1381 2444.83 1405 2444.83 1429H2870.83ZM3179.33 1219C3217.33 1184 3261.33 1158 3311.33 1141C3361.33 1123 3411.33 1114 3461.33 1114C3513.33 1114 3557.83 1120.5 3594.83 1133.5C3632.83 1146.5 3663.83 1164 3687.83 1186C3711.83 1208 3729.33 1233.5 3740.33 1262.5C3752.33 1290.5 3758.33 1320 3758.33 1351V1714C3758.33 1739 3758.83 1762 3759.83 1783C3760.83 1804 3762.33 1824 3764.33 1843H3644.33C3641.33 1807 3639.83 1771 3639.83 1735H3636.83C3606.83 1781 3571.33 1813.5 3530.33 1832.5C3489.33 1851.5 3441.83 1861 3387.83 1861C3354.83 1861 3323.33 1856.5 3293.33 1847.5C3263.33 1838.5 3236.83 1825 3213.83 1807C3191.83 1789 3174.33 1767 3161.33 1741C3148.33 1714 3141.83 1683 3141.83 1648C3141.83 1602 3151.83 1563.5 3171.83 1532.5C3192.83 1501.5 3220.83 1476.5 3255.83 1457.5C3291.83 1437.5 3333.33 1423.5 3380.33 1415.5C3428.33 1406.5 3479.33 1402 3533.33 1402H3632.33V1372C3632.33 1354 3628.83 1336 3621.83 1318C3614.83 1300 3604.33 1284 3590.33 1270C3576.33 1255 3558.83 1243.5 3537.83 1235.5C3516.83 1226.5 3491.83 1222 3462.83 1222C3436.83 1222 3413.83 1224.5 3393.83 1229.5C3374.83 1234.5 3357.33 1241 3341.33 1249C3325.33 1256 3310.83 1264.5 3297.83 1274.5C3284.83 1284.5 3272.33 1294 3260.33 1303L3179.33 1219ZM3560.33 1501C3528.33 1501 3495.33 1503 3461.33 1507C3428.33 1510 3397.83 1516.5 3369.83 1526.5C3342.83 1536.5 3320.33 1550.5 3302.33 1568.5C3285.33 1586.5 3276.83 1609.5 3276.83 1637.5C3276.83 1678.5 3290.33 1708 3317.33 1726C3345.33 1744 3382.83 1753 3429.83 1753C3466.83 1753 3498.33 1747 3524.33 1735C3550.33 1722 3571.33 1705.5 3587.33 1685.5C3603.33 1665.5 3614.83 1643.5 3621.83 1619.5C3628.83 1594.5 3632.33 1570 3632.33 1546V1501H3560.33ZM4006.66 1249H3853.66V1132H4006.66V973C4006.66 878 4024.66 807.5 4060.66 761.5C4097.66 714.5 4160.66 691 4249.66 691C4264.66 691 4280.16 691.5 4296.16 692.5C4313.16 693.5 4331.16 696.5 4350.16 701.5L4335.16 821.5C4322.16 816.5 4309.66 813 4297.66 811C4285.66 809 4272.66 808 4258.66 808C4233.66 808 4213.66 812 4198.66 820C4183.66 827 4171.66 837.5 4162.66 851.5C4154.66 865.5 4149.16 882.5 4146.16 902.5C4144.16 921.5 4143.16 943.5 4143.16 968.5V1132H4303.66V1249H4141.66V1843H4006.66V1249Z" fill="black"/>
<rect width="229.082" height="74.6158" rx="23.9854" transform="matrix(0.0131774 -0.999913 -0.999913 -0.0131774 1031.87 1989.21)" fill="#1DB954"/>
<rect width="229.082" height="74.6158" rx="23.9854" transform="matrix(0.0131774 -0.999913 -0.999913 -0.0131774 1031.87 1989.21)" stroke="black"/>
<path d="M997.689 1868.86C1576.53 1750.31 1309.86 1109.61 1044.02 710.915C1018.69 672.926 961.841 690.988 961.088 736.641L943.196 1822.38C942.712 1851.76 968.903 1874.76 997.689 1868.86Z" fill="#1DB954"/>
<path d="M966.389 1863.07C391.91 1724.92 680.197 1093.65 959.429 704.215C986.036 667.108 1042.24 687.091 1041.44 732.744L1022.43 1818.46C1021.92 1847.84 994.958 1869.94 966.389 1863.07Z" fill="#1DB954"/>
<path d="M1001.82 1967.82C1010.77 1610.54 1009.7 964.825 1004.91 684.118L982.528 1342.4L987.153 1967.19C987.368 1996.13 1001.09 1996.75 1001.82 1967.82Z" fill="white"/>
<path d="M1008.62 1225.89C1072.53 1163.26 1166.14 1008.24 1213.65 921.992L996.729 1211.68C984.473 1228.05 994.017 1240.2 1008.62 1225.89Z" fill="white"/>
<path d="M1014.61 1565.47C1099.33 1476.48 1238.02 1260.84 1309.51 1142.33L1002.47 1552.36C989.059 1570.26 999.182 1581.67 1014.61 1565.47Z" fill="white"/>
<path d="M982.44 1454.02C898.593 1412.19 753.401 1288.66 677.153 1218.64L989.385 1436.96C1006.37 1448.84 1000.98 1463.27 982.44 1454.02Z" fill="white"/>
<path d="M976.385 1776.31C883.132 1728.3 717.226 1590.17 629.966 1512.38L983.54 1759.61C1001.08 1771.88 995.414 1786.11 976.385 1776.31Z" fill="white"/>
</svg>
