<svg width="4306" height="1962" viewBox="0 0 4306 1962" fill="none" xmlns="http://www.w3.org/2000/svg">
<path d="M1117.5 431H1261.5V1358H1749V1493H1117.5V431ZM1962.83 1187C1962.83 1218 1969.33 1246.5 1982.33 1272.5C1996.33 1297.5 2014.33 1319 2036.33 1337C2058.33 1355 2083.83 1369 2112.83 1379C2141.83 1389 2171.83 1394 2202.83 1394C2244.83 1394 2281.33 1384.5 2312.33 1365.5C2343.33 1345.5 2371.83 1319.5 2397.83 1287.5L2499.83 1365.5C2424.83 1462.5 2319.83 1511 2184.83 1511C2128.83 1511 2077.83 1501.5 2031.83 1482.5C1986.83 1463.5 1948.33 1437.5 1916.33 1404.5C1885.33 1370.5 1861.33 1331 1844.33 1286C1827.33 1240 1818.83 1190.5 1818.83 1137.5C1818.83 1084.5 1827.83 1035.5 1845.83 990.5C1864.83 944.5 1890.33 905 1922.33 872C1955.33 838 1994.33 811.5 2039.33 792.5C2084.33 773.5 2133.33 764 2186.33 764C2249.33 764 2302.33 775 2345.33 797C2389.33 819 2425.33 848 2453.33 884C2481.33 919 2501.33 959 2513.33 1004C2526.33 1048 2532.83 1093 2532.83 1139V1187H1962.83ZM2388.83 1079C2387.83 1049 2382.83 1021.5 2373.83 996.5C2365.83 971.5 2353.33 950 2336.33 932C2319.33 913 2297.83 898.5 2271.83 888.5C2246.83 877.5 2217.33 872 2183.33 872C2150.33 872 2119.83 878.5 2091.83 891.5C2064.83 903.5 2041.83 919.5 2022.83 939.5C2003.83 959.5 1988.83 982 1977.83 1007C1967.83 1031 1962.83 1055 1962.83 1079H2388.83ZM2697.33 869C2735.33 834 2779.33 808 2829.33 791C2879.33 773 2929.33 764 2979.33 764C3031.33 764 3075.83 770.5 3112.83 783.5C3150.83 796.5 3181.83 814 3205.83 836C3229.83 858 3247.33 883.5 3258.33 912.5C3270.33 940.5 3276.33 970 3276.33 1001V1364C3276.33 1389 3276.83 1412 3277.83 1433C3278.83 1454 3280.33 1474 3282.33 1493H3162.33C3159.33 1457 3157.83 1421 3157.83 1385H3154.83C3124.83 1431 3089.33 1463.5 3048.33 1482.5C3007.33 1501.5 2959.83 1511 2905.83 1511C2872.83 1511 2841.33 1506.5 2811.33 1497.5C2781.33 1488.5 2754.83 1475 2731.83 1457C2709.83 1439 2692.33 1417 2679.33 1391C2666.33 1364 2659.83 1333 2659.83 1298C2659.83 1252 2669.83 1213.5 2689.83 1182.5C2710.83 1151.5 2738.83 1126.5 2773.83 1107.5C2809.83 1087.5 2851.33 1073.5 2898.33 1065.5C2946.33 1056.5 2997.33 1052 3051.33 1052H3150.33V1022C3150.33 1004 3146.83 986 3139.83 968C3132.83 950 3122.33 934 3108.33 920C3094.33 905 3076.83 893.5 3055.83 885.5C3034.83 876.5 3009.83 872 2980.83 872C2954.83 872 2931.83 874.5 2911.83 879.5C2892.83 884.5 2875.33 891 2859.33 899C2843.33 906 2828.83 914.5 2815.83 924.5C2802.83 934.5 2790.33 944 2778.33 953L2697.33 869ZM3078.33 1151C3046.33 1151 3013.33 1153 2979.33 1157C2946.33 1160 2915.83 1166.5 2887.83 1176.5C2860.83 1186.5 2838.33 1200.5 2820.33 1218.5C2803.33 1236.5 2794.83 1259.5 2794.83 1287.5C2794.83 1328.5 2808.33 1358 2835.33 1376C2863.33 1394 2900.83 1403 2947.83 1403C2984.83 1403 3016.33 1397 3042.33 1385C3068.33 1372 3089.33 1355.5 3105.33 1335.5C3121.33 1315.5 3132.83 1293.5 3139.83 1269.5C3146.83 1244.5 3150.33 1220 3150.33 1196V1151H3078.33ZM3524.66 899H3371.66V782H3524.66V623C3524.66 528 3542.66 457.5 3578.66 411.5C3615.66 364.5 3678.66 341 3767.66 341C3782.66 341 3798.16 341.5 3814.16 342.5C3831.16 343.5 3849.16 346.5 3868.16 351.5L3853.16 471.5C3840.16 466.5 3827.66 463 3815.66 461C3803.66 459 3790.66 458 3776.66 458C3751.66 458 3731.66 462 3716.66 470C3701.66 477 3689.66 487.5 3680.66 501.5C3672.66 515.5 3667.16 532.5 3664.16 552.5C3662.16 571.5 3661.16 593.5 3661.16 618.5V782H3821.66V899H3659.66V1493H3524.66V899Z" fill="black"/>
<rect width="229.082" height="74.6158" rx="23.9854" transform="matrix(0.0131774 -0.999913 -0.999913 -0.0131774 549.866 1639.21)" fill="#1DB954"/>
<rect width="229.082" height="74.6158" rx="23.9854" transform="matrix(0.0131774 -0.999913 -0.999913 -0.0131774 549.866 1639.21)" stroke="black"/>
<path d="M515.689 1518.86C1094.53 1400.31 827.862 759.61 562.025 360.915C536.695 322.926 479.841 340.988 479.088 386.641L461.196 1472.38C460.712 1501.76 486.903 1524.76 515.689 1518.86Z" fill="#1DB954"/>
<path d="M484.389 1513.07C-90.0904 1374.92 198.197 743.646 477.429 354.215C504.036 317.108 560.243 337.091 559.444 382.744L540.43 1468.46C539.915 1497.84 512.958 1519.94 484.389 1513.07Z" fill="#1DB954"/>
<path d="M519.816 1617.82C528.767 1260.54 527.698 614.825 522.909 334.118L500.528 992.397L505.153 1617.19C505.368 1646.13 519.091 1646.75 519.816 1617.82Z" fill="white"/>
<path d="M526.621 875.888C590.531 813.26 684.14 658.241 731.654 571.992L514.729 861.679C502.473 878.046 512.017 890.199 526.621 875.888Z" fill="white"/>
<path d="M532.608 1215.47C617.325 1126.48 756.022 910.842 827.507 792.332L520.469 1202.36C507.059 1220.26 517.182 1231.67 532.608 1215.47Z" fill="white"/>
<path d="M500.44 1104.02C416.593 1062.19 271.401 938.661 195.153 868.641L507.385 1086.96C524.367 1098.84 518.982 1113.27 500.44 1104.02Z" fill="white"/>
<path d="M494.385 1426.31C401.132 1378.3 235.226 1240.17 147.966 1162.38L501.54 1409.61C519.081 1421.88 513.414 1436.11 494.385 1426.31Z" fill="white"/>
</svg>
