<svg width="4786" height="1964" viewBox="0 0 4786 1964" fill="none" xmlns="http://www.w3.org/2000/svg">
<rect width="229.082" height="74.6158" rx="23.9854" transform="matrix(0.0131774 -0.999913 -0.999913 -0.0131774 797.852 1628.22)" fill="#2ECC40"/>
<rect width="229.082" height="74.6158" rx="23.9854" transform="matrix(0.0131774 -0.999913 -0.999913 -0.0131774 797.852 1628.22)" stroke="black"/>
<path d="M763.688 1507.86C1342.53 1389.31 1075.86 748.606 810.024 349.911C784.694 311.922 727.84 329.984 727.087 375.637L709.195 1461.38C708.711 1490.76 734.902 1513.75 763.688 1507.86Z" fill="#2ECC40"/>
<path d="M763.688 1507.86C1342.53 1389.31 1075.86 748.606 810.024 349.911C784.694 311.922 727.84 329.984 727.087 375.637L709.195 1461.38C708.711 1490.76 734.902 1513.75 763.688 1507.86Z" fill="#2ECC40"/>
<path d="M732.389 1502.07C157.91 1363.92 446.197 732.646 725.43 343.215C752.036 306.108 808.244 326.091 807.444 371.744L788.43 1457.46C787.916 1486.84 760.959 1508.94 732.389 1502.07Z" fill="#2ECC40"/>
<path d="M726.95 1477.34C743.642 1217.47 727.909 655.161 715.416 353.969L709.899 1475.66C709.768 1502.19 725.25 1503.81 726.95 1477.34Z" fill="white"/>
<path d="M734.441 865.156C797.89 803.099 890.515 649.406 937.507 563.863L722.555 850.914C710.328 867.242 719.858 879.419 734.441 865.156Z" fill="white"/>
<path d="M740.593 1204.48C825.311 1115.49 964.007 899.853 1035.49 781.344L728.454 1191.37C715.044 1209.28 725.167 1220.68 740.593 1204.48Z" fill="white"/>
<path d="M715.58 1098.16C636.377 1059.34 501.37 943.001 430.536 876.809L722.408 1080.89C739.096 1092.56 733.864 1107.12 715.58 1098.16Z" fill="white"/>
<path d="M706.638 1418.54C623.524 1377.18 479.943 1254.79 404.551 1185.38L713.566 1401.45C730.502 1413.29 725.14 1427.75 706.638 1418.54Z" fill="white"/>
<path d="M1390.5 431H1534.5V1358H2022V1493H1390.5V431ZM2235.83 1187C2235.83 1218 2242.33 1246.5 2255.33 1272.5C2269.33 1297.5 2287.33 1319 2309.33 1337C2331.33 1355 2356.83 1369 2385.83 1379C2414.83 1389 2444.83 1394 2475.83 1394C2517.83 1394 2554.33 1384.5 2585.33 1365.5C2616.33 1345.5 2644.83 1319.5 2670.83 1287.5L2772.83 1365.5C2697.83 1462.5 2592.83 1511 2457.83 1511C2401.83 1511 2350.83 1501.5 2304.83 1482.5C2259.83 1463.5 2221.33 1437.5 2189.33 1404.5C2158.33 1370.5 2134.33 1331 2117.33 1286C2100.33 1240 2091.83 1190.5 2091.83 1137.5C2091.83 1084.5 2100.83 1035.5 2118.83 990.5C2137.83 944.5 2163.33 905 2195.33 872C2228.33 838 2267.33 811.5 2312.33 792.5C2357.33 773.5 2406.33 764 2459.33 764C2522.33 764 2575.33 775 2618.33 797C2662.33 819 2698.33 848 2726.33 884C2754.33 919 2774.33 959 2786.33 1004C2799.33 1048 2805.83 1093 2805.83 1139V1187H2235.83ZM2661.83 1079C2660.83 1049 2655.83 1021.5 2646.83 996.5C2638.83 971.5 2626.33 950 2609.33 932C2592.33 913 2570.83 898.5 2544.83 888.5C2519.83 877.5 2490.33 872 2456.33 872C2423.33 872 2392.83 878.5 2364.83 891.5C2337.83 903.5 2314.83 919.5 2295.83 939.5C2276.83 959.5 2261.83 982 2250.83 1007C2240.83 1031 2235.83 1055 2235.83 1079H2661.83ZM2970.33 869C3008.33 834 3052.33 808 3102.33 791C3152.33 773 3202.33 764 3252.33 764C3304.33 764 3348.83 770.5 3385.83 783.5C3423.83 796.5 3454.83 814 3478.83 836C3502.83 858 3520.33 883.5 3531.33 912.5C3543.33 940.5 3549.33 970 3549.33 1001V1364C3549.33 1389 3549.83 1412 3550.83 1433C3551.83 1454 3553.33 1474 3555.33 1493H3435.33C3432.33 1457 3430.83 1421 3430.83 1385H3427.83C3397.83 1431 3362.33 1463.5 3321.33 1482.5C3280.33 1501.5 3232.83 1511 3178.83 1511C3145.83 1511 3114.33 1506.5 3084.33 1497.5C3054.33 1488.5 3027.83 1475 3004.83 1457C2982.83 1439 2965.33 1417 2952.33 1391C2939.33 1364 2932.83 1333 2932.83 1298C2932.83 1252 2942.83 1213.5 2962.83 1182.5C2983.83 1151.5 3011.83 1126.5 3046.83 1107.5C3082.83 1087.5 3124.33 1073.5 3171.33 1065.5C3219.33 1056.5 3270.33 1052 3324.33 1052H3423.33V1022C3423.33 1004 3419.83 986 3412.83 968C3405.83 950 3395.33 934 3381.33 920C3367.33 905 3349.83 893.5 3328.83 885.5C3307.83 876.5 3282.83 872 3253.83 872C3227.83 872 3204.83 874.5 3184.83 879.5C3165.83 884.5 3148.33 891 3132.33 899C3116.33 906 3101.83 914.5 3088.83 924.5C3075.83 934.5 3063.33 944 3051.33 953L2970.33 869ZM3351.33 1151C3319.33 1151 3286.33 1153 3252.33 1157C3219.33 1160 3188.83 1166.5 3160.83 1176.5C3133.83 1186.5 3111.33 1200.5 3093.33 1218.5C3076.33 1236.5 3067.83 1259.5 3067.83 1287.5C3067.83 1328.5 3081.33 1358 3108.33 1376C3136.33 1394 3173.83 1403 3220.83 1403C3257.83 1403 3289.33 1397 3315.33 1385C3341.33 1372 3362.33 1355.5 3378.33 1335.5C3394.33 1315.5 3405.83 1293.5 3412.83 1269.5C3419.83 1244.5 3423.33 1220 3423.33 1196V1151H3351.33ZM3797.66 899H3644.66V782H3797.66V623C3797.66 528 3815.66 457.5 3851.66 411.5C3888.66 364.5 3951.66 341 4040.66 341C4055.66 341 4071.16 341.5 4087.16 342.5C4104.16 343.5 4122.16 346.5 4141.16 351.5L4126.16 471.5C4113.16 466.5 4100.66 463 4088.66 461C4076.66 459 4063.66 458 4049.66 458C4024.66 458 4004.66 462 3989.66 470C3974.66 477 3962.66 487.5 3953.66 501.5C3945.66 515.5 3940.16 532.5 3937.16 552.5C3935.16 571.5 3934.16 593.5 3934.16 618.5V782H4094.66V899H3932.66V1493H3797.66V899Z" fill="black"/>
</svg>
