<svg width="446" height="172" viewBox="0 0 446 172" fill="none" xmlns="http://www.w3.org/2000/svg">
<path d="M133.715 125.801L137.289 125.488C137.458 126.921 137.849 128.099 138.461 129.023C139.086 129.935 140.049 130.677 141.352 131.25C142.654 131.81 144.118 132.09 145.746 132.09C147.191 132.09 148.467 131.875 149.574 131.445C150.681 131.016 151.501 130.43 152.035 129.688C152.582 128.932 152.855 128.112 152.855 127.227C152.855 126.328 152.595 125.547 152.074 124.883C151.553 124.206 150.694 123.639 149.496 123.184C148.728 122.884 147.029 122.422 144.398 121.797C141.768 121.159 139.926 120.56 138.871 120C137.504 119.284 136.482 118.398 135.805 117.344C135.141 116.276 134.809 115.085 134.809 113.77C134.809 112.324 135.219 110.977 136.039 109.727C136.859 108.464 138.057 107.507 139.633 106.855C141.208 106.204 142.96 105.879 144.887 105.879C147.009 105.879 148.878 106.224 150.492 106.914C152.12 107.591 153.37 108.594 154.242 109.922C155.115 111.25 155.583 112.754 155.648 114.434L152.016 114.707C151.82 112.897 151.156 111.53 150.023 110.605C148.904 109.681 147.243 109.219 145.043 109.219C142.751 109.219 141.078 109.642 140.023 110.488C138.982 111.322 138.461 112.331 138.461 113.516C138.461 114.544 138.832 115.391 139.574 116.055C140.303 116.719 142.204 117.402 145.277 118.105C148.363 118.796 150.479 119.401 151.625 119.922C153.292 120.69 154.522 121.667 155.316 122.852C156.111 124.023 156.508 125.378 156.508 126.914C156.508 128.438 156.072 129.876 155.199 131.23C154.327 132.572 153.07 133.62 151.43 134.375C149.802 135.117 147.966 135.488 145.922 135.488C143.331 135.488 141.156 135.111 139.398 134.355C137.654 133.6 136.28 132.467 135.277 130.957C134.288 129.434 133.767 127.715 133.715 125.801ZM174.77 127.402L178.227 127.852C177.849 130.234 176.879 132.103 175.316 133.457C173.767 134.798 171.859 135.469 169.594 135.469C166.755 135.469 164.47 134.544 162.738 132.695C161.02 130.833 160.16 128.171 160.16 124.707C160.16 122.467 160.531 120.508 161.273 118.828C162.016 117.148 163.142 115.892 164.652 115.059C166.176 114.212 167.829 113.789 169.613 113.789C171.866 113.789 173.708 114.362 175.141 115.508C176.573 116.641 177.491 118.255 177.895 120.352L174.477 120.879C174.151 119.486 173.572 118.438 172.738 117.734C171.918 117.031 170.922 116.68 169.75 116.68C167.979 116.68 166.54 117.318 165.434 118.594C164.327 119.857 163.773 121.862 163.773 124.609C163.773 127.396 164.307 129.421 165.375 130.684C166.443 131.947 167.836 132.578 169.555 132.578C170.935 132.578 172.087 132.155 173.012 131.309C173.936 130.462 174.522 129.16 174.77 127.402ZM181.195 135V114.258H184.359V117.402C185.167 115.931 185.909 114.961 186.586 114.492C187.276 114.023 188.031 113.789 188.852 113.789C190.036 113.789 191.241 114.167 192.465 114.922L191.254 118.184C190.395 117.676 189.535 117.422 188.676 117.422C187.908 117.422 187.217 117.656 186.605 118.125C185.993 118.581 185.557 119.219 185.297 120.039C184.906 121.289 184.711 122.656 184.711 124.141V135H181.195ZM193.246 124.629C193.246 120.788 194.314 117.943 196.449 116.094C198.233 114.557 200.408 113.789 202.973 113.789C205.824 113.789 208.155 114.727 209.965 116.602C211.775 118.464 212.68 121.042 212.68 124.336C212.68 127.005 212.276 129.108 211.469 130.645C210.674 132.168 209.509 133.353 207.973 134.199C206.449 135.046 204.783 135.469 202.973 135.469C200.069 135.469 197.719 134.538 195.922 132.676C194.138 130.814 193.246 128.132 193.246 124.629ZM196.859 124.629C196.859 127.285 197.439 129.277 198.598 130.605C199.757 131.921 201.215 132.578 202.973 132.578C204.717 132.578 206.169 131.914 207.328 130.586C208.487 129.258 209.066 127.233 209.066 124.512C209.066 121.947 208.48 120.007 207.309 118.691C206.15 117.363 204.704 116.699 202.973 116.699C201.215 116.699 199.757 117.357 198.598 118.672C197.439 119.987 196.859 121.973 196.859 124.629ZM216.742 135V106.367H220.258V135H216.742ZM225.648 135V106.367H229.164V135H225.648ZM259.301 132.441C257.999 133.548 256.742 134.329 255.531 134.785C254.333 135.241 253.044 135.469 251.664 135.469C249.385 135.469 247.634 134.915 246.41 133.809C245.186 132.689 244.574 131.263 244.574 129.531C244.574 128.516 244.802 127.591 245.258 126.758C245.727 125.911 246.332 125.234 247.074 124.727C247.829 124.219 248.676 123.835 249.613 123.574C250.303 123.392 251.345 123.216 252.738 123.047C255.577 122.708 257.667 122.305 259.008 121.836C259.021 121.354 259.027 121.048 259.027 120.918C259.027 119.486 258.695 118.477 258.031 117.891C257.133 117.096 255.798 116.699 254.027 116.699C252.374 116.699 251.15 116.992 250.355 117.578C249.574 118.151 248.995 119.173 248.617 120.645L245.18 120.176C245.492 118.704 246.007 117.52 246.723 116.621C247.439 115.71 248.474 115.013 249.828 114.531C251.182 114.036 252.751 113.789 254.535 113.789C256.306 113.789 257.745 113.997 258.852 114.414C259.958 114.831 260.772 115.358 261.293 115.996C261.814 116.621 262.178 117.415 262.387 118.379C262.504 118.978 262.562 120.059 262.562 121.621V126.309C262.562 129.577 262.634 131.647 262.777 132.52C262.934 133.379 263.233 134.206 263.676 135H260.004C259.639 134.271 259.405 133.418 259.301 132.441ZM259.008 124.59C257.732 125.111 255.818 125.553 253.266 125.918C251.82 126.126 250.798 126.361 250.199 126.621C249.6 126.882 249.138 127.266 248.812 127.773C248.487 128.268 248.324 128.822 248.324 129.434C248.324 130.371 248.676 131.152 249.379 131.777C250.095 132.402 251.137 132.715 252.504 132.715C253.858 132.715 255.062 132.422 256.117 131.836C257.172 131.237 257.947 130.423 258.441 129.395C258.819 128.6 259.008 127.428 259.008 125.879V124.59ZM268.031 135V114.258H271.195V117.207C272.719 114.928 274.919 113.789 277.797 113.789C279.047 113.789 280.193 114.017 281.234 114.473C282.289 114.915 283.077 115.501 283.598 116.23C284.118 116.96 284.483 117.826 284.691 118.828C284.822 119.479 284.887 120.618 284.887 122.246V135H281.371V122.383C281.371 120.951 281.234 119.883 280.961 119.18C280.688 118.464 280.199 117.897 279.496 117.48C278.806 117.051 277.992 116.836 277.055 116.836C275.557 116.836 274.262 117.311 273.168 118.262C272.087 119.212 271.547 121.016 271.547 123.672V135H268.031ZM303.754 135V132.383C302.439 134.44 300.505 135.469 297.953 135.469C296.299 135.469 294.776 135.013 293.383 134.102C292.003 133.19 290.928 131.921 290.16 130.293C289.405 128.652 289.027 126.771 289.027 124.648C289.027 122.578 289.372 120.703 290.062 119.023C290.753 117.331 291.788 116.035 293.168 115.137C294.548 114.238 296.091 113.789 297.797 113.789C299.047 113.789 300.16 114.056 301.137 114.59C302.113 115.111 302.908 115.794 303.52 116.641V106.367H307.016V135H303.754ZM292.641 124.648C292.641 127.305 293.201 129.29 294.32 130.605C295.44 131.921 296.762 132.578 298.285 132.578C299.822 132.578 301.124 131.953 302.191 130.703C303.272 129.44 303.812 127.52 303.812 124.941C303.812 122.103 303.266 120.02 302.172 118.691C301.078 117.363 299.73 116.699 298.129 116.699C296.566 116.699 295.258 117.337 294.203 118.613C293.161 119.889 292.641 121.901 292.641 124.648ZM323.617 135V106.367H327.133V135H323.617ZM346.801 128.32L350.434 128.77C349.861 130.892 348.799 132.539 347.25 133.711C345.701 134.883 343.721 135.469 341.312 135.469C338.279 135.469 335.87 134.538 334.086 132.676C332.315 130.801 331.43 128.177 331.43 124.805C331.43 121.315 332.328 118.607 334.125 116.68C335.922 114.753 338.253 113.789 341.117 113.789C343.891 113.789 346.156 114.733 347.914 116.621C349.672 118.509 350.551 121.165 350.551 124.59C350.551 124.798 350.544 125.111 350.531 125.527H335.062C335.193 127.806 335.837 129.551 336.996 130.762C338.155 131.973 339.6 132.578 341.332 132.578C342.621 132.578 343.721 132.24 344.633 131.562C345.544 130.885 346.267 129.805 346.801 128.32ZM335.258 122.637H346.84C346.684 120.892 346.241 119.583 345.512 118.711C344.392 117.357 342.94 116.68 341.156 116.68C339.542 116.68 338.181 117.22 337.074 118.301C335.98 119.382 335.375 120.827 335.258 122.637ZM368.402 132.441C367.1 133.548 365.844 134.329 364.633 134.785C363.435 135.241 362.146 135.469 360.766 135.469C358.487 135.469 356.736 134.915 355.512 133.809C354.288 132.689 353.676 131.263 353.676 129.531C353.676 128.516 353.904 127.591 354.359 126.758C354.828 125.911 355.434 125.234 356.176 124.727C356.931 124.219 357.777 123.835 358.715 123.574C359.405 123.392 360.447 123.216 361.84 123.047C364.678 122.708 366.768 122.305 368.109 121.836C368.122 121.354 368.129 121.048 368.129 120.918C368.129 119.486 367.797 118.477 367.133 117.891C366.234 117.096 364.9 116.699 363.129 116.699C361.475 116.699 360.251 116.992 359.457 117.578C358.676 118.151 358.096 119.173 357.719 120.645L354.281 120.176C354.594 118.704 355.108 117.52 355.824 116.621C356.54 115.71 357.576 115.013 358.93 114.531C360.284 114.036 361.853 113.789 363.637 113.789C365.408 113.789 366.846 113.997 367.953 114.414C369.06 114.831 369.874 115.358 370.395 115.996C370.915 116.621 371.28 117.415 371.488 118.379C371.605 118.978 371.664 120.059 371.664 121.621V126.309C371.664 129.577 371.736 131.647 371.879 132.52C372.035 133.379 372.335 134.206 372.777 135H369.105C368.741 134.271 368.507 133.418 368.402 132.441ZM368.109 124.59C366.833 125.111 364.919 125.553 362.367 125.918C360.922 126.126 359.9 126.361 359.301 126.621C358.702 126.882 358.24 127.266 357.914 127.773C357.589 128.268 357.426 128.822 357.426 129.434C357.426 130.371 357.777 131.152 358.48 131.777C359.197 132.402 360.238 132.715 361.605 132.715C362.96 132.715 364.164 132.422 365.219 131.836C366.273 131.237 367.048 130.423 367.543 129.395C367.921 128.6 368.109 127.428 368.109 125.879V124.59ZM377.094 135V114.258H380.258V117.402C381.065 115.931 381.807 114.961 382.484 114.492C383.174 114.023 383.93 113.789 384.75 113.789C385.935 113.789 387.139 114.167 388.363 114.922L387.152 118.184C386.293 117.676 385.434 117.422 384.574 117.422C383.806 117.422 383.116 117.656 382.504 118.125C381.892 118.581 381.456 119.219 381.195 120.039C380.805 121.289 380.609 122.656 380.609 124.141V135H377.094ZM390.453 135V114.258H393.617V117.207C395.141 114.928 397.341 113.789 400.219 113.789C401.469 113.789 402.615 114.017 403.656 114.473C404.711 114.915 405.499 115.501 406.02 116.23C406.54 116.96 406.905 117.826 407.113 118.828C407.243 119.479 407.309 120.618 407.309 122.246V135H403.793V122.383C403.793 120.951 403.656 119.883 403.383 119.18C403.109 118.464 402.621 117.897 401.918 117.48C401.228 117.051 400.414 116.836 399.477 116.836C397.979 116.836 396.684 117.311 395.59 118.262C394.509 119.212 393.969 121.016 393.969 123.672V135H390.453Z" fill="black" fill-opacity="0.37"/>
<path d="M36.6396 109.509L56.5615 107.092C57.1963 112.17 58.9053 116.052 61.6885 118.737C64.4717 121.423 67.8408 122.766 71.7959 122.766C76.0439 122.766 79.6084 121.154 82.4893 117.932C85.4189 114.709 86.8838 110.363 86.8838 104.895C86.8838 99.7188 85.4922 95.6172 82.709 92.5898C79.9258 89.5625 76.5322 88.0488 72.5283 88.0488C69.8916 88.0488 66.7422 88.5615 63.0801 89.5869L65.3506 72.8145C70.917 72.9609 75.165 71.7646 78.0947 69.2256C81.0244 66.6377 82.4893 63.2197 82.4893 58.9717C82.4893 55.3584 81.415 52.4775 79.2666 50.3291C77.1182 48.1807 74.2617 47.1064 70.6973 47.1064C67.1816 47.1064 64.1787 48.3271 61.6885 50.7686C59.1982 53.21 57.6846 56.7744 57.1475 61.4619L38.1777 58.2393C39.4961 51.7451 41.4736 46.5693 44.1104 42.7119C46.7959 38.8057 50.5068 35.7539 55.2432 33.5566C60.0283 31.3105 65.375 30.1875 71.2832 30.1875C81.3906 30.1875 89.4961 33.4102 95.5996 39.8555C100.629 45.1289 103.144 51.0859 103.144 57.7266C103.144 67.1504 97.9922 74.6699 87.6895 80.2852C93.8418 81.6035 98.749 84.5576 102.411 89.1475C106.122 93.7373 107.978 99.2793 107.978 105.773C107.978 115.197 104.535 123.229 97.6504 129.87C90.7656 136.511 82.1963 139.831 71.9424 139.831C62.2256 139.831 54.1689 137.048 47.7725 131.481C41.376 125.866 37.665 118.542 36.6396 109.509Z" fill="black"/>
<path d="M133.281 78V42.209H144.878C149.272 42.209 152.137 42.388 153.472 42.7461C155.522 43.2832 157.24 44.4551 158.623 46.2617C160.007 48.0521 160.698 50.3714 160.698 53.2197C160.698 55.417 160.299 57.2643 159.502 58.7617C158.704 60.2591 157.687 61.4391 156.45 62.3018C155.229 63.1481 153.984 63.7096 152.715 63.9863C150.99 64.3281 148.491 64.499 145.22 64.499H140.508V78H133.281ZM140.508 48.2637V58.4199H144.463C147.311 58.4199 149.215 58.2327 150.176 57.8584C151.136 57.484 151.885 56.8981 152.422 56.1006C152.975 55.3031 153.252 54.3753 153.252 53.3174C153.252 52.0153 152.869 50.9411 152.104 50.0947C151.34 49.2484 150.371 48.7194 149.199 48.5078C148.337 48.3451 146.603 48.2637 143.999 48.2637H140.508ZM183.647 78V74.1182C182.703 75.5016 181.458 76.5921 179.912 77.3896C178.382 78.1872 176.763 78.5859 175.054 78.5859C173.312 78.5859 171.75 78.2035 170.366 77.4385C168.983 76.6735 167.982 75.5993 167.363 74.2158C166.745 72.8324 166.436 70.9199 166.436 68.4785V52.0723H173.296V63.9863C173.296 67.6322 173.418 69.8701 173.662 70.7002C173.923 71.514 174.386 72.165 175.054 72.6533C175.721 73.1253 176.567 73.3613 177.593 73.3613C178.765 73.3613 179.814 73.0439 180.742 72.4092C181.67 71.7581 182.305 70.9606 182.646 70.0166C182.988 69.0563 183.159 66.7207 183.159 63.0098V52.0723H190.02V78H183.647ZM196.855 78V42.209H203.716V55.0996C205.832 52.6908 208.338 51.4863 211.235 51.4863C214.393 51.4863 217.005 52.6338 219.072 54.9287C221.139 57.2074 222.173 60.487 222.173 64.7676C222.173 69.1947 221.115 72.6045 218.999 74.9971C216.899 77.3896 214.344 78.5859 211.333 78.5859C209.852 78.5859 208.387 78.2197 206.938 77.4873C205.506 76.7386 204.269 75.64 203.228 74.1914V78H196.855ZM203.667 64.4746C203.667 67.1602 204.09 69.1458 204.937 70.4316C206.125 72.2546 207.703 73.166 209.673 73.166C211.187 73.166 212.472 72.5231 213.53 71.2373C214.604 69.9352 215.142 67.8926 215.142 65.1094C215.142 62.1471 214.604 60.015 213.53 58.7129C212.456 57.3945 211.081 56.7354 209.404 56.7354C207.76 56.7354 206.393 57.3783 205.303 58.6641C204.212 59.9336 203.667 61.8704 203.667 64.4746ZM227.715 78V42.209H234.575V78H227.715ZM241.631 48.5566V42.209H248.491V48.5566H241.631ZM241.631 78V52.0723H248.491V78H241.631ZM253.13 70.6025L260.015 69.5527C260.308 70.8874 260.902 71.9046 261.797 72.6045C262.692 73.2881 263.945 73.6299 265.557 73.6299C267.331 73.6299 268.665 73.3044 269.561 72.6533C270.163 72.1976 270.464 71.5872 270.464 70.8223C270.464 70.3014 270.301 69.8701 269.976 69.5283C269.634 69.2028 268.869 68.9017 267.681 68.625C262.147 67.4043 258.639 66.2894 257.158 65.2803C255.107 63.8805 254.082 61.9355 254.082 59.4453C254.082 57.1992 254.969 55.3112 256.743 53.7812C258.517 52.2513 261.268 51.4863 264.995 51.4863C268.543 51.4863 271.18 52.0641 272.905 53.2197C274.631 54.3753 275.819 56.0843 276.47 58.3467L270 59.543C269.723 58.5339 269.194 57.7607 268.413 57.2236C267.648 56.6865 266.549 56.418 265.117 56.418C263.311 56.418 262.017 56.6702 261.235 57.1748C260.715 57.5329 260.454 57.9967 260.454 58.5664C260.454 59.0547 260.682 59.4697 261.138 59.8115C261.756 60.2673 263.888 60.9102 267.534 61.7402C271.196 62.5703 273.752 63.5876 275.2 64.792C276.632 66.0127 277.349 67.7135 277.349 69.8945C277.349 72.2708 276.356 74.3135 274.37 76.0225C272.384 77.7314 269.447 78.5859 265.557 78.5859C262.025 78.5859 259.225 77.8698 257.158 76.4375C255.107 75.0052 253.765 73.0602 253.13 70.6025ZM290.215 42.209V55.3682C292.428 52.7803 295.073 51.4863 298.149 51.4863C299.728 51.4863 301.152 51.7793 302.422 52.3652C303.691 52.9512 304.644 53.6999 305.278 54.6113C305.929 55.5228 306.369 56.5319 306.597 57.6387C306.841 58.7454 306.963 60.4626 306.963 62.79V78H300.103V64.3037C300.103 61.5856 299.972 59.8604 299.712 59.1279C299.451 58.3955 298.988 57.8177 298.32 57.3945C297.669 56.9551 296.847 56.7354 295.854 56.7354C294.715 56.7354 293.698 57.012 292.803 57.5654C291.908 58.1188 291.248 58.957 290.825 60.0801C290.418 61.1868 290.215 62.8307 290.215 65.0117V78H283.354V42.209H290.215Z" fill="black"/>
</svg>
