<svg width="487" height="208" viewBox="0 0 487 208" fill="none" xmlns="http://www.w3.org/2000/svg">
<path d="M103.033 155H82.4521V77.4365C74.9326 84.4678 66.0703 89.668 55.8652 93.0371V74.3604C61.2363 72.6025 67.0713 69.2822 73.3701 64.3994C79.6689 59.4678 83.9902 53.7305 86.334 47.1875H103.033V155Z" fill="black"/>
<path d="M156.832 126.367H160.621V142.91C160.621 145.788 160.296 148.073 159.645 149.766C158.993 151.458 157.815 152.839 156.109 153.906C154.417 154.961 152.19 155.488 149.43 155.488C146.747 155.488 144.553 155.026 142.848 154.102C141.142 153.177 139.924 151.842 139.195 150.098C138.466 148.34 138.102 145.944 138.102 142.91V126.367H141.891V142.891C141.891 145.378 142.118 147.214 142.574 148.398C143.043 149.57 143.837 150.475 144.957 151.113C146.09 151.751 147.47 152.07 149.098 152.07C151.884 152.07 153.87 151.439 155.055 150.176C156.24 148.913 156.832 146.484 156.832 142.891V126.367ZM165.094 148.809L168.57 148.262C168.766 149.655 169.306 150.723 170.191 151.465C171.09 152.207 172.34 152.578 173.941 152.578C175.556 152.578 176.754 152.253 177.535 151.602C178.316 150.938 178.707 150.163 178.707 149.277C178.707 148.483 178.362 147.858 177.672 147.402C177.19 147.09 175.992 146.693 174.078 146.211C171.5 145.56 169.71 145 168.707 144.531C167.717 144.049 166.962 143.392 166.441 142.559C165.934 141.712 165.68 140.781 165.68 139.766C165.68 138.841 165.888 137.988 166.305 137.207C166.734 136.413 167.314 135.755 168.043 135.234C168.59 134.831 169.332 134.492 170.27 134.219C171.22 133.932 172.236 133.789 173.316 133.789C174.944 133.789 176.37 134.023 177.594 134.492C178.831 134.961 179.742 135.599 180.328 136.406C180.914 137.201 181.318 138.268 181.539 139.609L178.102 140.078C177.945 139.01 177.49 138.177 176.734 137.578C175.992 136.979 174.938 136.68 173.57 136.68C171.956 136.68 170.803 136.947 170.113 137.48C169.423 138.014 169.078 138.639 169.078 139.355C169.078 139.811 169.221 140.221 169.508 140.586C169.794 140.964 170.243 141.276 170.855 141.523C171.207 141.654 172.242 141.953 173.961 142.422C176.448 143.086 178.18 143.633 179.156 144.062C180.146 144.479 180.921 145.091 181.48 145.898C182.04 146.706 182.32 147.708 182.32 148.906C182.32 150.078 181.975 151.185 181.285 152.227C180.608 153.255 179.625 154.056 178.336 154.629C177.047 155.189 175.589 155.469 173.961 155.469C171.266 155.469 169.208 154.909 167.789 153.789C166.383 152.669 165.484 151.009 165.094 148.809ZM186.52 130.41V126.367H190.035V130.41H186.52ZM186.52 155V134.258H190.035V155H186.52ZM195.406 155V134.258H198.57V137.207C200.094 134.928 202.294 133.789 205.172 133.789C206.422 133.789 207.568 134.017 208.609 134.473C209.664 134.915 210.452 135.501 210.973 136.23C211.493 136.96 211.858 137.826 212.066 138.828C212.197 139.479 212.262 140.618 212.262 142.246V155H208.746V142.383C208.746 140.951 208.609 139.883 208.336 139.18C208.062 138.464 207.574 137.897 206.871 137.48C206.181 137.051 205.367 136.836 204.43 136.836C202.932 136.836 201.637 137.311 200.543 138.262C199.462 139.212 198.922 141.016 198.922 143.672V155H195.406ZM217.027 156.719L220.445 157.227C220.589 158.281 220.986 159.049 221.637 159.531C222.509 160.182 223.701 160.508 225.211 160.508C226.839 160.508 228.095 160.182 228.98 159.531C229.866 158.88 230.465 157.969 230.777 156.797C230.96 156.081 231.044 154.577 231.031 152.285C229.495 154.095 227.581 155 225.289 155C222.438 155 220.23 153.971 218.668 151.914C217.105 149.857 216.324 147.389 216.324 144.512C216.324 142.533 216.682 140.71 217.398 139.043C218.115 137.363 219.15 136.068 220.504 135.156C221.871 134.245 223.473 133.789 225.309 133.789C227.757 133.789 229.775 134.779 231.363 136.758V134.258H234.605V152.188C234.605 155.417 234.273 157.702 233.609 159.043C232.958 160.397 231.917 161.465 230.484 162.246C229.065 163.027 227.314 163.418 225.23 163.418C222.757 163.418 220.758 162.858 219.234 161.738C217.711 160.632 216.975 158.958 217.027 156.719ZM219.938 144.258C219.938 146.979 220.478 148.965 221.559 150.215C222.639 151.465 223.993 152.09 225.621 152.09C227.236 152.09 228.59 151.471 229.684 150.234C230.777 148.984 231.324 147.031 231.324 144.375C231.324 141.836 230.758 139.922 229.625 138.633C228.505 137.344 227.151 136.699 225.562 136.699C224 136.699 222.672 137.337 221.578 138.613C220.484 139.876 219.938 141.758 219.938 144.258ZM251.402 155V126.367H257.105L263.883 146.641C264.508 148.529 264.964 149.941 265.25 150.879C265.576 149.837 266.083 148.307 266.773 146.289L273.629 126.367H278.727V155H275.074V131.035L266.754 155H263.336L255.055 130.625V155H251.402ZM297.926 152.441C296.624 153.548 295.367 154.329 294.156 154.785C292.958 155.241 291.669 155.469 290.289 155.469C288.01 155.469 286.259 154.915 285.035 153.809C283.811 152.689 283.199 151.263 283.199 149.531C283.199 148.516 283.427 147.591 283.883 146.758C284.352 145.911 284.957 145.234 285.699 144.727C286.454 144.219 287.301 143.835 288.238 143.574C288.928 143.392 289.97 143.216 291.363 143.047C294.202 142.708 296.292 142.305 297.633 141.836C297.646 141.354 297.652 141.048 297.652 140.918C297.652 139.486 297.32 138.477 296.656 137.891C295.758 137.096 294.423 136.699 292.652 136.699C290.999 136.699 289.775 136.992 288.98 137.578C288.199 138.151 287.62 139.173 287.242 140.645L283.805 140.176C284.117 138.704 284.632 137.52 285.348 136.621C286.064 135.71 287.099 135.013 288.453 134.531C289.807 134.036 291.376 133.789 293.16 133.789C294.931 133.789 296.37 133.997 297.477 134.414C298.583 134.831 299.397 135.358 299.918 135.996C300.439 136.621 300.803 137.415 301.012 138.379C301.129 138.978 301.188 140.059 301.188 141.621V146.309C301.188 149.577 301.259 151.647 301.402 152.52C301.559 153.379 301.858 154.206 302.301 155H298.629C298.264 154.271 298.03 153.418 297.926 152.441ZM297.633 144.59C296.357 145.111 294.443 145.553 291.891 145.918C290.445 146.126 289.423 146.361 288.824 146.621C288.225 146.882 287.763 147.266 287.438 147.773C287.112 148.268 286.949 148.822 286.949 149.434C286.949 150.371 287.301 151.152 288.004 151.777C288.72 152.402 289.762 152.715 291.129 152.715C292.483 152.715 293.688 152.422 294.742 151.836C295.797 151.237 296.572 150.423 297.066 149.395C297.444 148.6 297.633 147.428 297.633 145.879V144.59ZM306.617 155V134.258H309.781V137.402C310.589 135.931 311.331 134.961 312.008 134.492C312.698 134.023 313.453 133.789 314.273 133.789C315.458 133.789 316.663 134.167 317.887 134.922L316.676 138.184C315.816 137.676 314.957 137.422 314.098 137.422C313.329 137.422 312.639 137.656 312.027 138.125C311.415 138.581 310.979 139.219 310.719 140.039C310.328 141.289 310.133 142.656 310.133 144.141V155H306.617ZM319.996 155V126.367H323.512V142.695L331.832 134.258H336.383L328.453 141.953L337.184 155H332.848L325.992 144.395L323.512 146.777V155H319.996ZM353.434 155V152.383C352.118 154.44 350.185 155.469 347.633 155.469C345.979 155.469 344.456 155.013 343.062 154.102C341.682 153.19 340.608 151.921 339.84 150.293C339.085 148.652 338.707 146.771 338.707 144.648C338.707 142.578 339.052 140.703 339.742 139.023C340.432 137.331 341.467 136.035 342.848 135.137C344.228 134.238 345.771 133.789 347.477 133.789C348.727 133.789 349.84 134.056 350.816 134.59C351.793 135.111 352.587 135.794 353.199 136.641V126.367H356.695V155H353.434ZM342.32 144.648C342.32 147.305 342.88 149.29 344 150.605C345.12 151.921 346.441 152.578 347.965 152.578C349.501 152.578 350.803 151.953 351.871 150.703C352.952 149.44 353.492 147.52 353.492 144.941C353.492 142.103 352.945 140.02 351.852 138.691C350.758 137.363 349.41 136.699 347.809 136.699C346.246 136.699 344.938 137.337 343.883 138.613C342.841 139.889 342.32 141.901 342.32 144.648ZM360.934 144.629C360.934 140.788 362.001 137.943 364.137 136.094C365.921 134.557 368.095 133.789 370.66 133.789C373.512 133.789 375.842 134.727 377.652 136.602C379.462 138.464 380.367 141.042 380.367 144.336C380.367 147.005 379.964 149.108 379.156 150.645C378.362 152.168 377.197 153.353 375.66 154.199C374.137 155.046 372.47 155.469 370.66 155.469C367.757 155.469 365.406 154.538 363.609 152.676C361.826 150.814 360.934 148.132 360.934 144.629ZM364.547 144.629C364.547 147.285 365.126 149.277 366.285 150.605C367.444 151.921 368.902 152.578 370.66 152.578C372.405 152.578 373.857 151.914 375.016 150.586C376.174 149.258 376.754 147.233 376.754 144.512C376.754 141.947 376.168 140.007 374.996 138.691C373.837 137.363 372.392 136.699 370.66 136.699C368.902 136.699 367.444 137.357 366.285 138.672C365.126 139.987 364.547 141.973 364.547 144.629ZM388.336 155L381.988 134.258H385.621L388.922 146.23L390.152 150.684C390.204 150.462 390.562 149.036 391.227 146.406L394.527 134.258H398.141L401.246 146.289L402.281 150.254L403.473 146.25L407.027 134.258H410.445L403.961 155H400.309L397.008 142.578L396.207 139.043L392.008 155H388.336ZM413.414 155V134.258H416.578V137.207C418.102 134.928 420.302 133.789 423.18 133.789C424.43 133.789 425.576 134.017 426.617 134.473C427.672 134.915 428.46 135.501 428.98 136.23C429.501 136.96 429.866 137.826 430.074 138.828C430.204 139.479 430.27 140.618 430.27 142.246V155H426.754V142.383C426.754 140.951 426.617 139.883 426.344 139.18C426.07 138.464 425.582 137.897 424.879 137.48C424.189 137.051 423.375 136.836 422.438 136.836C420.94 136.836 419.645 137.311 418.551 138.262C417.47 139.212 416.93 141.016 416.93 143.672V155H413.414Z" fill="black" fill-opacity="0.37"/>
<path d="M134.691 86.3545L141.723 85.6709C142.146 88.0309 143 89.7643 144.286 90.8711C145.588 91.9779 147.338 92.5312 149.535 92.5312C151.863 92.5312 153.612 92.043 154.784 91.0664C155.972 90.0736 156.566 88.918 156.566 87.5996C156.566 86.7533 156.314 86.0371 155.81 85.4512C155.321 84.849 154.459 84.3281 153.222 83.8887C152.375 83.5957 150.447 83.0749 147.436 82.3262C143.562 81.3659 140.844 80.1859 139.281 78.7861C137.084 76.8167 135.985 74.416 135.985 71.584C135.985 69.7611 136.498 68.0602 137.523 66.4814C138.565 64.8864 140.054 63.6738 141.991 62.8438C143.944 62.0137 146.296 61.5986 149.047 61.5986C153.539 61.5986 156.916 62.5833 159.179 64.5527C161.457 66.5221 162.654 69.1507 162.768 72.4385L155.541 72.7559C155.232 70.9167 154.564 69.5983 153.539 68.8008C152.53 67.987 151.008 67.5801 148.974 67.5801C146.874 67.5801 145.23 68.0114 144.042 68.874C143.277 69.4274 142.895 70.168 142.895 71.0957C142.895 71.9421 143.253 72.6663 143.969 73.2686C144.88 74.0335 147.094 74.8311 150.609 75.6611C154.125 76.4912 156.721 77.3538 158.397 78.249C160.09 79.1279 161.409 80.3405 162.353 81.8867C163.313 83.4167 163.793 85.3128 163.793 87.5752C163.793 89.626 163.223 91.5465 162.084 93.3369C160.945 95.1273 159.333 96.4619 157.25 97.3408C155.167 98.2035 152.571 98.6348 149.462 98.6348C144.937 98.6348 141.462 97.5931 139.037 95.5098C136.612 93.4102 135.163 90.3584 134.691 86.3545ZM181.713 72.0723V77.541H177.025V87.9902C177.025 90.1061 177.066 91.3431 177.147 91.7012C177.245 92.043 177.449 92.3278 177.758 92.5557C178.083 92.7835 178.474 92.8975 178.93 92.8975C179.564 92.8975 180.484 92.6777 181.688 92.2383L182.274 97.5605C180.679 98.2441 178.873 98.5859 176.854 98.5859C175.618 98.5859 174.503 98.3825 173.51 97.9756C172.517 97.5524 171.785 97.0153 171.312 96.3643C170.857 95.6969 170.539 94.8018 170.36 93.6787C170.214 92.8812 170.141 91.2699 170.141 88.8447V77.541H166.991V72.0723H170.141V66.9209L177.025 62.917V72.0723H181.713ZM201.488 89.748L208.324 90.8955C207.445 93.402 206.054 95.3145 204.149 96.6328C202.261 97.9349 199.893 98.5859 197.045 98.5859C192.536 98.5859 189.2 97.113 187.035 94.167C185.326 91.807 184.472 88.8285 184.472 85.2314C184.472 80.9346 185.595 77.5736 187.841 75.1484C190.087 72.707 192.927 71.4863 196.361 71.4863C200.219 71.4863 203.262 72.764 205.492 75.3193C207.722 77.8584 208.788 81.7565 208.69 87.0137H191.503C191.552 89.0482 192.105 90.6351 193.163 91.7744C194.221 92.8975 195.539 93.459 197.118 93.459C198.192 93.459 199.096 93.166 199.828 92.5801C200.561 91.9941 201.114 91.0501 201.488 89.748ZM201.879 82.8145C201.83 80.8288 201.317 79.3232 200.341 78.2979C199.364 77.2562 198.176 76.7354 196.776 76.7354C195.279 76.7354 194.042 77.2806 193.065 78.3711C192.089 79.4616 191.609 80.9427 191.625 82.8145H201.879ZM214.11 72.0723H220.507V75.8809C221.337 74.5788 222.46 73.5208 223.876 72.707C225.292 71.8932 226.863 71.4863 228.588 71.4863C231.599 71.4863 234.154 72.6663 236.254 75.0264C238.354 77.3864 239.403 80.6742 239.403 84.8896C239.403 89.2191 238.345 92.5882 236.229 94.9971C234.114 97.3896 231.55 98.5859 228.539 98.5859C227.107 98.5859 225.805 98.3011 224.633 97.7314C223.477 97.1618 222.257 96.1852 220.971 94.8018V107.863H214.11V72.0723ZM220.897 84.5967C220.897 87.5101 221.475 89.6667 222.631 91.0664C223.786 92.4499 225.194 93.1416 226.854 93.1416C228.45 93.1416 229.776 92.5068 230.834 91.2373C231.892 89.9515 232.421 87.8519 232.421 84.9385C232.421 82.2204 231.876 80.2021 230.785 78.8838C229.695 77.5654 228.344 76.9062 226.732 76.9062C225.056 76.9062 223.664 77.5573 222.558 78.8594C221.451 80.1452 220.897 82.0576 220.897 84.5967ZM242.455 90.6025L249.34 89.5527C249.633 90.8874 250.227 91.9046 251.122 92.6045C252.017 93.2881 253.271 93.6299 254.882 93.6299C256.656 93.6299 257.991 93.3044 258.886 92.6533C259.488 92.1976 259.789 91.5872 259.789 90.8223C259.789 90.3014 259.626 89.8701 259.301 89.5283C258.959 89.2028 258.194 88.9017 257.006 88.625C251.472 87.4043 247.965 86.2894 246.483 85.2803C244.433 83.8805 243.407 81.9355 243.407 79.4453C243.407 77.1992 244.294 75.3112 246.068 73.7812C247.842 72.2513 250.593 71.4863 254.32 71.4863C257.868 71.4863 260.505 72.0641 262.23 73.2197C263.956 74.3753 265.144 76.0843 265.795 78.3467L259.325 79.543C259.049 78.5339 258.52 77.7607 257.738 77.2236C256.973 76.6865 255.875 76.418 254.442 76.418C252.636 76.418 251.342 76.6702 250.561 77.1748C250.04 77.5329 249.779 77.9967 249.779 78.5664C249.779 79.0547 250.007 79.4697 250.463 79.8115C251.081 80.2673 253.214 80.9102 256.859 81.7402C260.521 82.5703 263.077 83.5876 264.525 84.792C265.958 86.0127 266.674 87.7135 266.674 89.8945C266.674 92.2708 265.681 94.3135 263.695 96.0225C261.71 97.7314 258.772 98.5859 254.882 98.5859C251.35 98.5859 248.55 97.8698 246.483 96.4375C244.433 95.0052 243.09 93.0602 242.455 90.6025Z" fill="black"/>
</svg>
