<svg width="752" height="595" viewBox="0 0 752 595" fill="none" xmlns="http://www.w3.org/2000/svg">
<rect width="752" height="595" fill="#E5E5E5"/>
<rect width="752" height="595" fill="#C4C4C4"/>
<rect opacity="0.6" x="47" y="428" width="291" height="112" rx="10" fill="#F3F3F3"/>
<g filter="url(#filter0_d)">
<rect x="47" y="268" width="291" height="112" rx="10" fill="#F3F3F3"/>
<rect x="47.5" y="268.5" width="290" height="111" rx="9.5" stroke="black"/>
</g>
<rect opacity="0.6" x="47" y="108" width="291" height="112" rx="10" fill="#F3F3F3"/>
<rect x="393" y="37" width="327" height="506" fill="#F3F3F3"/>
<line x1="393" y1="64.5" x2="720" y2="64.5" stroke="#C4C4C4" stroke-opacity="0.62"/>
<line x1="393" y1="515.5" x2="720" y2="515.5" stroke="#C4C4C4" stroke-opacity="0.62"/>
<rect x="393" y="37" width="109" height="28" fill="#7C7968" fill-opacity="0.7"/>
<rect opacity="0.5" x="502" y="37" width="218" height="28" fill="#7C7968" fill-opacity="0.7"/>
<path d="M679.505 526.038V531.288C679.505 531.744 679.484 532.131 679.443 532.45C679.407 532.769 679.32 533.093 679.184 533.421C678.956 533.972 678.58 534.403 678.056 534.713C677.532 535.018 676.894 535.171 676.142 535.171C675.463 535.171 674.895 535.064 674.439 534.85C673.988 534.635 673.624 534.289 673.346 533.811C673.2 533.555 673.081 533.261 672.99 532.929C672.899 532.596 672.854 532.279 672.854 531.979C672.854 531.66 672.942 531.416 673.12 531.247C673.298 531.078 673.526 530.994 673.804 530.994C674.073 530.994 674.275 531.072 674.412 531.227C674.549 531.382 674.654 531.623 674.727 531.951C674.804 532.302 674.882 532.582 674.959 532.792C675.036 533.002 675.166 533.182 675.349 533.332C675.531 533.482 675.791 533.558 676.128 533.558C677.026 533.558 677.475 532.899 677.475 531.582V526.038C677.475 525.628 677.563 525.32 677.741 525.115C677.924 524.91 678.17 524.808 678.479 524.808C678.794 524.808 679.042 524.91 679.225 525.115C679.411 525.32 679.505 525.628 679.505 526.038ZM690.321 531.992C690.321 532.598 690.164 533.143 689.85 533.626C689.54 534.109 689.084 534.487 688.482 534.761C687.881 535.034 687.168 535.171 686.343 535.171C685.354 535.171 684.538 534.984 683.896 534.61C683.44 534.341 683.068 533.984 682.781 533.537C682.499 533.086 682.357 532.648 682.357 532.225C682.357 531.979 682.442 531.769 682.61 531.596C682.784 531.418 683.002 531.329 683.267 531.329C683.481 531.329 683.661 531.397 683.807 531.534C683.957 531.671 684.085 531.874 684.189 532.143C684.317 532.462 684.454 532.728 684.6 532.942C684.75 533.157 684.96 533.334 685.229 533.476C685.497 533.612 685.851 533.681 686.288 533.681C686.89 533.681 687.377 533.542 687.751 533.264C688.129 532.981 688.318 532.63 688.318 532.211C688.318 531.878 688.216 531.609 688.011 531.404C687.81 531.195 687.548 531.035 687.225 530.926C686.906 530.816 686.477 530.7 685.939 530.577C685.219 530.409 684.616 530.213 684.128 529.989C683.645 529.761 683.26 529.454 682.973 529.066C682.69 528.674 682.549 528.189 682.549 527.61C682.549 527.059 682.699 526.569 683 526.141C683.301 525.712 683.736 525.384 684.306 525.156C684.875 524.924 685.545 524.808 686.315 524.808C686.931 524.808 687.462 524.885 687.908 525.04C688.359 525.19 688.733 525.393 689.029 525.648C689.326 525.899 689.542 526.163 689.679 526.441C689.815 526.719 689.884 526.991 689.884 527.255C689.884 527.496 689.797 527.715 689.624 527.911C689.455 528.103 689.243 528.198 688.988 528.198C688.756 528.198 688.578 528.141 688.455 528.027C688.337 527.909 688.207 527.717 688.065 527.453C687.883 527.075 687.664 526.781 687.409 526.571C687.154 526.357 686.744 526.25 686.179 526.25C685.655 526.25 685.231 526.366 684.907 526.599C684.588 526.826 684.429 527.102 684.429 527.426C684.429 527.626 684.483 527.799 684.593 527.945C684.702 528.091 684.853 528.216 685.044 528.321C685.235 528.426 685.429 528.508 685.625 528.567C685.821 528.627 686.145 528.713 686.596 528.827C687.161 528.959 687.671 529.105 688.127 529.265C688.587 529.424 688.977 529.618 689.296 529.846C689.619 530.074 689.87 530.363 690.048 530.714C690.23 531.06 690.321 531.486 690.321 531.992ZM692.675 533.052L694.917 529.777L693.03 526.865C692.853 526.583 692.718 526.341 692.627 526.141C692.54 525.936 692.497 525.74 692.497 525.553C692.497 525.361 692.581 525.19 692.75 525.04C692.923 524.885 693.133 524.808 693.379 524.808C693.661 524.808 693.88 524.892 694.035 525.061C694.195 525.225 694.413 525.532 694.691 525.983L696.195 528.417L697.802 525.983C697.934 525.778 698.046 525.603 698.137 525.457C698.232 525.311 698.324 525.19 698.41 525.095C698.497 524.999 698.592 524.928 698.697 524.883C698.807 524.833 698.932 524.808 699.073 524.808C699.328 524.808 699.536 524.885 699.695 525.04C699.859 525.19 699.941 525.37 699.941 525.58C699.941 525.885 699.766 526.3 699.415 526.824L697.439 529.777L699.565 533.052C699.757 533.339 699.896 533.578 699.982 533.77C700.069 533.956 700.112 534.134 700.112 534.303C700.112 534.462 700.074 534.608 699.996 534.74C699.919 534.872 699.809 534.977 699.668 535.055C699.527 535.132 699.367 535.171 699.189 535.171C698.998 535.171 698.836 535.13 698.704 535.048C698.572 534.97 698.465 534.872 698.383 534.754C698.301 534.635 698.148 534.405 697.925 534.063L696.161 531.288L694.288 534.146C694.142 534.373 694.037 534.533 693.974 534.624C693.914 534.715 693.841 534.804 693.755 534.891C693.668 534.977 693.566 535.046 693.447 535.096C693.329 535.146 693.19 535.171 693.03 535.171C692.784 535.171 692.579 535.096 692.415 534.945C692.256 534.795 692.176 534.576 692.176 534.289C692.176 533.952 692.342 533.539 692.675 533.052Z" fill="#D0D0D0"/>
<path d="M421.607 47.7471H421.812V46.626C421.812 46.3252 421.819 46.0905 421.833 45.9219C421.851 45.7487 421.897 45.6006 421.97 45.4775C422.043 45.3499 422.147 45.2474 422.284 45.1699C422.421 45.0879 422.574 45.0469 422.742 45.0469C422.979 45.0469 423.193 45.1357 423.385 45.3135C423.512 45.432 423.592 45.5778 423.624 45.751C423.66 45.9196 423.679 46.1611 423.679 46.4756V47.7471H424.362C424.627 47.7471 424.827 47.8109 424.964 47.9385C425.105 48.0615 425.176 48.221 425.176 48.417C425.176 48.6676 425.076 48.8431 424.875 48.9434C424.679 49.0436 424.396 49.0938 424.027 49.0938H423.679V52.5254C423.679 52.8171 423.688 53.0426 423.706 53.2021C423.729 53.3571 423.784 53.4847 423.87 53.585C423.961 53.6807 424.107 53.7285 424.308 53.7285C424.417 53.7285 424.565 53.7103 424.752 53.6738C424.939 53.6328 425.085 53.6123 425.189 53.6123C425.34 53.6123 425.474 53.6738 425.593 53.7969C425.716 53.9154 425.777 54.0635 425.777 54.2412C425.777 54.542 425.613 54.7721 425.285 54.9316C424.957 55.0911 424.485 55.1709 423.87 55.1709C423.287 55.1709 422.845 55.0729 422.544 54.877C422.243 54.681 422.045 54.4098 421.949 54.0635C421.858 53.7171 421.812 53.2546 421.812 52.6758V49.0938H421.566C421.298 49.0938 421.092 49.0299 420.951 48.9023C420.81 48.7747 420.739 48.613 420.739 48.417C420.739 48.221 420.812 48.0615 420.958 47.9385C421.108 47.8109 421.325 47.7471 421.607 47.7471ZM432.677 51.835H429.026C429.031 52.2588 429.115 52.6325 429.279 52.9561C429.448 53.2796 429.669 53.5234 429.942 53.6875C430.22 53.8516 430.526 53.9336 430.858 53.9336C431.082 53.9336 431.285 53.9085 431.467 53.8584C431.654 53.8037 431.834 53.7217 432.007 53.6123C432.18 53.4984 432.34 53.3776 432.485 53.25C432.631 53.1224 432.82 52.9492 433.053 52.7305C433.148 52.6484 433.285 52.6074 433.463 52.6074C433.654 52.6074 433.809 52.6598 433.928 52.7646C434.046 52.8695 434.105 53.0176 434.105 53.209C434.105 53.3776 434.039 53.5758 433.907 53.8037C433.775 54.027 433.575 54.2435 433.306 54.4531C433.041 54.6582 432.706 54.8291 432.301 54.9658C431.9 55.1025 431.437 55.1709 430.913 55.1709C429.715 55.1709 428.783 54.8291 428.117 54.1455C427.452 53.4619 427.119 52.5345 427.119 51.3633C427.119 50.8118 427.201 50.3014 427.365 49.832C427.529 49.3581 427.769 48.9525 428.083 48.6152C428.397 48.278 428.785 48.0205 429.245 47.8428C429.705 47.6605 430.216 47.5693 430.776 47.5693C431.506 47.5693 432.13 47.7243 432.649 48.0342C433.174 48.3395 433.565 48.736 433.825 49.2236C434.085 49.7113 434.215 50.208 434.215 50.7139C434.215 51.1833 434.08 51.4886 433.812 51.6299C433.543 51.7666 433.164 51.835 432.677 51.835ZM429.026 50.7754H432.41C432.365 50.1374 432.191 49.6611 431.891 49.3467C431.594 49.0277 431.202 48.8682 430.715 48.8682C430.25 48.8682 429.867 49.0299 429.566 49.3535C429.27 49.6725 429.09 50.1465 429.026 50.7754ZM442.803 52.7305C442.803 53.2454 442.677 53.6875 442.427 54.0566C442.176 54.4212 441.805 54.6992 441.312 54.8906C440.825 55.0775 440.23 55.1709 439.528 55.1709C438.858 55.1709 438.284 55.0684 437.806 54.8633C437.327 54.6582 436.974 54.403 436.746 54.0977C436.518 53.7878 436.404 53.4779 436.404 53.168C436.404 52.9629 436.477 52.7874 436.623 52.6416C436.769 52.4958 436.953 52.4229 437.177 52.4229C437.373 52.4229 437.523 52.4707 437.628 52.5664C437.733 52.6621 437.833 52.7965 437.929 52.9697C438.12 53.3024 438.348 53.5508 438.612 53.7148C438.881 53.8789 439.246 53.9609 439.706 53.9609C440.08 53.9609 440.385 53.8789 440.622 53.7148C440.864 53.5462 440.984 53.3548 440.984 53.1406C440.984 52.8125 440.859 52.5732 440.608 52.4229C440.362 52.2725 439.954 52.1289 439.385 51.9922C438.742 51.8327 438.218 51.6663 437.812 51.4932C437.411 51.3154 437.09 51.083 436.849 50.7959C436.607 50.5088 436.486 50.1556 436.486 49.7363C436.486 49.3626 436.598 49.0094 436.821 48.6768C437.045 48.3441 437.373 48.0798 437.806 47.8838C438.243 47.6833 438.77 47.583 439.385 47.583C439.868 47.583 440.301 47.6331 440.684 47.7334C441.071 47.8337 441.392 47.9681 441.647 48.1367C441.907 48.3053 442.103 48.4922 442.235 48.6973C442.372 48.9023 442.44 49.1029 442.44 49.2988C442.44 49.513 442.368 49.6885 442.222 49.8252C442.08 49.9619 441.878 50.0303 441.613 50.0303C441.422 50.0303 441.258 49.9756 441.121 49.8662C440.989 49.7568 440.836 49.5928 440.663 49.374C440.522 49.1917 440.355 49.0459 440.164 48.9365C439.973 48.8271 439.713 48.7725 439.385 48.7725C439.048 48.7725 438.767 48.8454 438.544 48.9912C438.321 49.1325 438.209 49.3102 438.209 49.5244C438.209 49.7204 438.291 49.8822 438.455 50.0098C438.619 50.1328 438.84 50.2354 439.118 50.3174C439.396 50.3994 439.779 50.4997 440.267 50.6182C440.845 50.7594 441.317 50.9281 441.682 51.124C442.051 51.32 442.329 51.5524 442.516 51.8213C442.707 52.0856 442.803 52.3887 442.803 52.7305ZM445.484 47.7471H445.689V46.626C445.689 46.3252 445.696 46.0905 445.71 45.9219C445.728 45.7487 445.774 45.6006 445.847 45.4775C445.92 45.3499 446.024 45.2474 446.161 45.1699C446.298 45.0879 446.451 45.0469 446.619 45.0469C446.856 45.0469 447.07 45.1357 447.262 45.3135C447.389 45.432 447.469 45.5778 447.501 45.751C447.537 45.9196 447.556 46.1611 447.556 46.4756V47.7471H448.239C448.504 47.7471 448.704 47.8109 448.841 47.9385C448.982 48.0615 449.053 48.221 449.053 48.417C449.053 48.6676 448.952 48.8431 448.752 48.9434C448.556 49.0436 448.273 49.0938 447.904 49.0938H447.556V52.5254C447.556 52.8171 447.565 53.0426 447.583 53.2021C447.606 53.3571 447.66 53.4847 447.747 53.585C447.838 53.6807 447.984 53.7285 448.185 53.7285C448.294 53.7285 448.442 53.7103 448.629 53.6738C448.816 53.6328 448.962 53.6123 449.066 53.6123C449.217 53.6123 449.351 53.6738 449.47 53.7969C449.593 53.9154 449.654 54.0635 449.654 54.2412C449.654 54.542 449.49 54.7721 449.162 54.9316C448.834 55.0911 448.362 55.1709 447.747 55.1709C447.164 55.1709 446.722 55.0729 446.421 54.877C446.12 54.681 445.922 54.4098 445.826 54.0635C445.735 53.7171 445.689 53.2546 445.689 52.6758V49.0938H445.443C445.174 49.0938 444.969 49.0299 444.828 48.9023C444.687 48.7747 444.616 48.613 444.616 48.417C444.616 48.221 444.689 48.0615 444.835 47.9385C444.985 47.8109 445.202 47.7471 445.484 47.7471ZM452.582 55.1709C452.299 55.1709 452.056 55.0798 451.851 54.8975C451.646 54.7152 451.543 54.46 451.543 54.1318C451.543 53.8538 451.641 53.6146 451.837 53.4141C452.033 53.2135 452.274 53.1133 452.562 53.1133C452.849 53.1133 453.092 53.2135 453.293 53.4141C453.498 53.61 453.601 53.8493 453.601 54.1318C453.601 54.4554 453.498 54.7106 453.293 54.8975C453.092 55.0798 452.855 55.1709 452.582 55.1709ZM458.613 48.6973V55.0273C458.613 55.4785 458.597 55.8454 458.565 56.1279C458.538 56.415 458.497 56.6224 458.442 56.75C458.132 57.543 457.474 57.9395 456.467 57.9395C455.902 57.9395 455.473 57.862 455.182 57.707C454.89 57.5521 454.744 57.3265 454.744 57.0303C454.744 56.8115 454.81 56.6315 454.942 56.4902C455.075 56.3535 455.248 56.2852 455.462 56.2852C455.489 56.2852 455.535 56.2874 455.599 56.292C455.658 56.3011 455.747 56.3102 455.865 56.3193C455.988 56.3285 456.073 56.333 456.118 56.333C456.369 56.333 456.535 56.235 456.617 56.0391C456.704 55.8431 456.747 55.4922 456.747 54.9863V48.6973C456.747 48.3281 456.834 48.0501 457.007 47.8633C457.18 47.6764 457.408 47.583 457.69 47.583C457.964 47.583 458.185 47.6764 458.354 47.8633C458.527 48.0456 458.613 48.3236 458.613 48.6973ZM457.69 46.7148C457.431 46.7148 457.207 46.6351 457.021 46.4756C456.838 46.3161 456.747 46.0905 456.747 45.7988C456.747 45.5345 456.84 45.318 457.027 45.1494C457.219 44.9762 457.44 44.8896 457.69 44.8896C457.932 44.8896 458.146 44.9671 458.333 45.1221C458.52 45.277 458.613 45.5026 458.613 45.7988C458.613 46.0859 458.522 46.3115 458.34 46.4756C458.158 46.6351 457.941 46.7148 457.69 46.7148ZM467.543 52.7305C467.543 53.2454 467.418 53.6875 467.167 54.0566C466.916 54.4212 466.545 54.6992 466.053 54.8906C465.565 55.0775 464.97 55.1709 464.269 55.1709C463.599 55.1709 463.024 55.0684 462.546 54.8633C462.067 54.6582 461.714 54.403 461.486 54.0977C461.258 53.7878 461.145 53.4779 461.145 53.168C461.145 52.9629 461.217 52.7874 461.363 52.6416C461.509 52.4958 461.694 52.4229 461.917 52.4229C462.113 52.4229 462.263 52.4707 462.368 52.5664C462.473 52.6621 462.573 52.7965 462.669 52.9697C462.86 53.3024 463.088 53.5508 463.353 53.7148C463.621 53.8789 463.986 53.9609 464.446 53.9609C464.82 53.9609 465.125 53.8789 465.362 53.7148C465.604 53.5462 465.725 53.3548 465.725 53.1406C465.725 52.8125 465.599 52.5732 465.349 52.4229C465.103 52.2725 464.695 52.1289 464.125 51.9922C463.482 51.8327 462.958 51.6663 462.553 51.4932C462.152 51.3154 461.83 51.083 461.589 50.7959C461.347 50.5088 461.227 50.1556 461.227 49.7363C461.227 49.3626 461.338 49.0094 461.562 48.6768C461.785 48.3441 462.113 48.0798 462.546 47.8838C462.983 47.6833 463.51 47.583 464.125 47.583C464.608 47.583 465.041 47.6331 465.424 47.7334C465.811 47.8337 466.132 47.9681 466.388 48.1367C466.647 48.3053 466.843 48.4922 466.976 48.6973C467.112 48.9023 467.181 49.1029 467.181 49.2988C467.181 49.513 467.108 49.6885 466.962 49.8252C466.821 49.9619 466.618 50.0303 466.354 50.0303C466.162 50.0303 465.998 49.9756 465.861 49.8662C465.729 49.7568 465.576 49.5928 465.403 49.374C465.262 49.1917 465.096 49.0459 464.904 48.9365C464.713 48.8271 464.453 48.7725 464.125 48.7725C463.788 48.7725 463.507 48.8454 463.284 48.9912C463.061 49.1325 462.949 49.3102 462.949 49.5244C462.949 49.7204 463.031 49.8822 463.195 50.0098C463.359 50.1328 463.58 50.2354 463.858 50.3174C464.136 50.3994 464.519 50.4997 465.007 50.6182C465.586 50.7594 466.057 50.9281 466.422 51.124C466.791 51.32 467.069 51.5524 467.256 51.8213C467.447 52.0856 467.543 52.3887 467.543 52.7305ZM474.169 54.3984L472.815 52.4092L471.428 54.3984C471.227 54.6764 471.056 54.8747 470.915 54.9932C470.778 55.1117 470.603 55.1709 470.389 55.1709C470.152 55.1709 469.949 55.098 469.78 54.9521C469.616 54.8018 469.534 54.6309 469.534 54.4395C469.534 54.2435 469.662 53.9632 469.917 53.5986L471.605 51.1787L470.108 49.1621C469.849 48.8294 469.719 48.54 469.719 48.2939C469.719 48.1025 469.796 47.9362 469.951 47.7949C470.106 47.6536 470.309 47.583 470.56 47.583C470.778 47.583 470.958 47.6445 471.1 47.7676C471.245 47.8906 471.414 48.0843 471.605 48.3486L472.815 50.0029L473.991 48.3486C474.187 48.0752 474.356 47.8792 474.497 47.7607C474.643 47.6423 474.823 47.583 475.037 47.583C475.283 47.583 475.486 47.6536 475.646 47.7949C475.81 47.9316 475.892 48.098 475.892 48.2939C475.892 48.4352 475.857 48.5719 475.789 48.7041C475.725 48.8317 475.625 48.9844 475.488 49.1621L473.991 51.1787L475.68 53.5986C475.944 53.9769 476.076 54.2617 476.076 54.4531C476.076 54.6491 475.994 54.8177 475.83 54.959C475.666 55.1003 475.463 55.1709 475.222 55.1709C475.007 55.1709 474.825 55.1094 474.675 54.9863C474.529 54.8633 474.36 54.6673 474.169 54.3984Z" fill="#D0D0D0"/>
<rect x="63" y="127" width="258" height="14" rx="7" fill="#C4C4C4"/>
<rect x="63" y="344" width="258" height="14" rx="7" fill="#C4C4C4"/>
<rect x="63" y="157" width="258" height="14" rx="7" fill="#C4C4C4"/>
<rect x="63" y="187" width="258" height="14" rx="7" fill="#C4C4C4"/>
<rect x="64" y="317" width="258" height="14" rx="7" fill="#C4C4C4"/>
<rect x="64" y="486" width="258" height="14" rx="7" fill="#C4C4C4"/>
<rect x="63" y="290" width="258" height="14" rx="7" fill="#C4C4C4"/>
<rect x="411" y="223" width="71" height="8" rx="4" fill="#37B161"/>
<rect x="411" y="223" width="71" height="8" rx="4" fill="#868686"/>
<rect x="440" y="238" width="261" height="8" rx="4" fill="#8ABCD8"/>
<rect x="440" y="253" width="261" height="8" rx="4" fill="#8ABCD8"/>
<rect x="477" y="283" width="224" height="8" rx="4" fill="#85C884"/>
<rect x="477" y="313" width="224" height="8" rx="4" fill="#F57A6E"/>
<rect x="440" y="268" width="73" height="8" rx="4" fill="#85C883"/>
<rect x="440" y="298" width="73" height="8" rx="4" fill="#F57A6E"/>
<rect x="413" y="103" width="71" height="8" rx="4" fill="#C4C4C4" fill-opacity="0.5"/>
<rect x="442" y="118" width="261" height="8" rx="4" fill="#C4C4C4" fill-opacity="0.5"/>
<rect x="440" y="133" width="261" height="8" rx="4" fill="#C4C4C4" fill-opacity="0.5"/>
<rect x="442" y="193" width="261" height="8" rx="4" fill="#C4C4C4" fill-opacity="0.5"/>
<rect x="479" y="163" width="224" height="8" rx="4" fill="#C4C4C4" fill-opacity="0.5"/>
<rect x="477" y="178" width="224" height="8" rx="4" fill="#C4C4C4" fill-opacity="0.5"/>
<rect x="442" y="148" width="73" height="8" rx="4" fill="#C4C4C4" fill-opacity="0.5"/>
<rect x="411" y="351" width="71" height="8" rx="4" fill="#C4C4C4" fill-opacity="0.5"/>
<rect x="440" y="366" width="261" height="8" rx="4" fill="#C4C4C4" fill-opacity="0.5"/>
<rect x="440" y="381" width="261" height="8" rx="4" fill="#C4C4C4" fill-opacity="0.5"/>
<rect x="440" y="426" width="261" height="8" rx="4" fill="#C4C4C4" fill-opacity="0.5"/>
<rect x="477" y="411" width="224" height="8" rx="4" fill="#C4C4C4" fill-opacity="0.5"/>
<rect x="440" y="396" width="73" height="8" rx="4" fill="#C4C4C4" fill-opacity="0.5"/>
<rect x="64" y="456" width="258" height="14" rx="7" fill="#C4C4C4"/>
<defs>
<filter id="filter0_d" x="43" y="268" width="299" height="120" filterUnits="userSpaceOnUse" color-interpolation-filters="sRGB">
<feFlood flood-opacity="0" result="BackgroundImageFix"/>
<feColorMatrix in="SourceAlpha" type="matrix" values="0 0 0 0 0 0 0 0 0 0 0 0 0 0 0 0 0 0 127 0"/>
<feOffset dy="4"/>
<feGaussianBlur stdDeviation="2"/>
<feColorMatrix type="matrix" values="0 0 0 0 0 0 0 0 0 0 0 0 0 0 0 0 0 0 0.25 0"/>
<feBlend mode="normal" in2="BackgroundImageFix" result="effect1_dropShadow"/>
<feBlend mode="normal" in="SourceGraphic" in2="effect1_dropShadow" result="shape"/>
</filter>
</defs>
</svg>
